; Drill file
; Format: 2.4 (00.0000)
M48
INCH
T01C0.0157
T02C0.0315
T03C0.0827
T04C0.1181
T05C0.122
%
G05
G90
T01
X005140Y003500
X006950Y001720
X005890Y007280
X006990Y007650
X009490Y010400
X004310Y012060
X001310Y007680
X001340Y018750
X002430Y019250
X005390Y022370
X007890Y022900
X011020Y022780
X012310Y025240
X015140Y025780
X015180Y027860
X017490Y027860
X019640Y029650
X025390Y022370
X027890Y022900
X031020Y022780
X032310Y025240
X035080Y025780
X035180Y027860
X033890Y029650
X037490Y027860
X037740Y020400
X035020Y015280
X032610Y015450
X029490Y017220
X028520Y017900
X022430Y019250
X021340Y018750
X017740Y020400
X015020Y015280
X012610Y015450
X009490Y017220
X008520Y017900
X005140Y029650
X017680Y008650
X017650Y006780
X021310Y007680
X025950Y007280
X026990Y007650
X029490Y010400
X024310Y012060
X025140Y003500
X027020Y001720
X037650Y006780
X037680Y008650
T02
X001320Y012730
X001320Y013730
X001320Y014730
X001320Y015730
X001320Y016730
X021320Y016730
X021320Y015730
X021320Y014730
X021320Y013730
X021320Y012730
T03
X019710Y001250
X019710Y031880
T04
X002710Y002500
X002690Y030560
T05
X036770Y002560
X036750Y030500
M30
