%FSLAX34Y34*%
%MOMM*%
%LNSILK_TOP*%
G71*
G01*
%ADD10C, 0.167*%
%ADD11C, 0.238*%
%ADD12C, 0.200*%
%ADD13C, 0.150*%
%ADD14C, 0.300*%
%LPD*%
G54D10*
X55591Y399568D02*
X60924Y399568D01*
G54D10*
X58258Y402901D02*
X58258Y396234D01*
G54D10*
X69924Y407068D02*
X64591Y407068D01*
X64591Y401234D01*
X65258Y401234D01*
X66591Y402068D01*
X67924Y402068D01*
X69258Y401234D01*
X69924Y399568D01*
X69924Y396234D01*
X69258Y394568D01*
X67924Y393734D01*
X66591Y393734D01*
X65258Y394568D01*
X64591Y396234D01*
G54D10*
X73591Y407068D02*
X76924Y393734D01*
X80258Y407068D01*
G54D10*
X58280Y370834D02*
X58947Y369168D01*
X60280Y368334D01*
X61614Y368334D01*
X62947Y369168D01*
X63614Y370834D01*
X63614Y372501D01*
X62947Y374168D01*
X61614Y375001D01*
X60280Y375001D01*
X58947Y375834D01*
X58280Y377501D01*
X58280Y379168D01*
X58947Y380834D01*
X60280Y381668D01*
X61614Y381668D01*
X62947Y380834D01*
X63614Y379168D01*
G54D10*
X72614Y370834D02*
X71947Y369168D01*
X70614Y368334D01*
X69280Y368334D01*
X67947Y369168D01*
X67280Y370834D01*
X67280Y379168D01*
X67947Y380834D01*
X69280Y381668D01*
X70614Y381668D01*
X71947Y380834D01*
X72614Y379168D01*
G54D10*
X76280Y381668D02*
X76280Y368334D01*
X80947Y368334D01*
G54D10*
X58766Y345434D02*
X59432Y343768D01*
X60766Y342934D01*
X62099Y342934D01*
X63432Y343768D01*
X64099Y345434D01*
X64099Y347101D01*
X63432Y348768D01*
X62099Y349601D01*
X60766Y349601D01*
X59432Y350434D01*
X58766Y352101D01*
X58766Y353768D01*
X59432Y355434D01*
X60766Y356268D01*
X62099Y356268D01*
X63432Y355434D01*
X64099Y353768D01*
G54D10*
X67766Y342934D02*
X67766Y356268D01*
X71099Y356268D01*
X72432Y355434D01*
X73099Y353768D01*
X73099Y345434D01*
X72432Y343768D01*
X71099Y342934D01*
X67766Y342934D01*
G54D10*
X76766Y342934D02*
X80099Y356268D01*
X83433Y342934D01*
G54D10*
X78099Y347934D02*
X82099Y347934D01*
G54D11*
X397347Y703297D02*
X402347Y716630D01*
X407347Y703297D01*
G54D11*
X399347Y708297D02*
X405347Y708297D01*
G54D11*
X29046Y490572D02*
X29046Y503905D01*
X34046Y503905D01*
X36046Y503072D01*
X37046Y501405D01*
X37046Y499739D01*
X36046Y498072D01*
X34046Y497239D01*
X36046Y496405D01*
X37046Y494739D01*
X37046Y493072D01*
X36046Y491405D01*
X34046Y490572D01*
X29046Y490572D01*
G54D11*
X29046Y497239D02*
X34046Y497239D01*
G54D11*
X57622Y503272D02*
X57622Y516605D01*
X62622Y516605D01*
X64622Y515772D01*
X65622Y514105D01*
X65622Y505772D01*
X64622Y504105D01*
X62622Y503272D01*
X57622Y503272D01*
G54D11*
X468869Y704209D02*
X467869Y702543D01*
X465869Y701709D01*
X463869Y701709D01*
X461869Y702543D01*
X460869Y704209D01*
X460869Y712543D01*
X461869Y714209D01*
X463869Y715043D01*
X465869Y715043D01*
X467869Y714209D01*
X468869Y712543D01*
G54D11*
X448820Y531847D02*
X441820Y531847D01*
X441820Y545180D01*
X448820Y545180D01*
G54D11*
X441820Y538514D02*
X448820Y538514D01*
G54D11*
X125908Y307986D02*
X125908Y321319D01*
X132908Y321319D01*
G54D11*
X125908Y314652D02*
X132908Y314652D01*
G54D11*
X433097Y219426D02*
X437097Y219426D01*
X437097Y215259D01*
X436097Y213593D01*
X434097Y212759D01*
X432097Y212759D01*
X430097Y213593D01*
X429097Y215259D01*
X429097Y223593D01*
X430097Y225259D01*
X432097Y226093D01*
X434097Y226093D01*
X436097Y225259D01*
X437097Y223593D01*
G54D11*
X29047Y169897D02*
X29047Y183230D01*
G54D11*
X37047Y169897D02*
X37047Y183230D01*
G54D11*
X29047Y176564D02*
X37047Y176564D01*
G54D11*
X459259Y166722D02*
X467259Y166722D01*
G54D11*
X463259Y166722D02*
X463259Y180055D01*
G54D11*
X459259Y180055D02*
X467259Y180055D01*
G54D11*
X133862Y124516D02*
X133862Y113683D01*
X132862Y112016D01*
X130862Y111183D01*
X128862Y111183D01*
X126862Y112016D01*
X125862Y113683D01*
G54D12*
X46268Y424960D02*
X46268Y431360D01*
X39968Y437660D01*
X27168Y437660D01*
X20868Y431360D01*
X20868Y418560D01*
X27168Y412260D01*
X39968Y412260D01*
X46268Y418560D01*
X46268Y424960D01*
G54D12*
X46268Y399560D02*
X46268Y405960D01*
X39968Y412260D01*
X27168Y412260D01*
X20868Y405960D01*
X20868Y393160D01*
X27168Y386860D01*
X39968Y386860D01*
X46268Y393160D01*
X46268Y399560D01*
G54D12*
X46268Y374160D02*
X46268Y380560D01*
X39968Y386860D01*
X27168Y386860D01*
X20868Y380560D01*
X20868Y367760D01*
X27168Y361460D01*
X39968Y361460D01*
X46268Y367760D01*
X46268Y374160D01*
G54D12*
X46268Y348760D02*
X46268Y355160D01*
X39968Y361460D01*
X27168Y361460D01*
X20868Y355160D01*
X20868Y342360D01*
X27168Y336060D01*
X39968Y336060D01*
X46268Y342360D01*
X46268Y348760D01*
G54D12*
X46268Y323360D02*
X46268Y329760D01*
X39968Y336060D01*
X27168Y336060D01*
X20868Y329760D01*
X20868Y316960D01*
X27168Y310660D01*
X39968Y310660D01*
X46268Y316960D01*
X46268Y323360D01*
G54D10*
X17936Y453697D02*
X22936Y458697D01*
X22936Y445364D01*
G54D10*
X26603Y458697D02*
X36603Y445364D01*
G54D10*
X26603Y445364D02*
X36603Y458697D01*
G54D10*
X40270Y447864D02*
X41270Y446197D01*
X43270Y445364D01*
X45270Y445364D01*
X47270Y446197D01*
X48270Y447864D01*
X48270Y449531D01*
X47270Y451197D01*
X45270Y452031D01*
X43270Y452031D01*
X41270Y452864D01*
X40270Y454531D01*
X40270Y456197D01*
X41270Y457864D01*
X43270Y458697D01*
X45270Y458697D01*
X47270Y457864D01*
X48270Y456197D01*
G54D10*
X51937Y453697D02*
X56937Y458697D01*
X56937Y445364D01*
G54D10*
X56424Y330868D02*
X59758Y317534D01*
X63091Y330868D01*
G54D10*
X66758Y317534D02*
X66758Y330868D01*
X70092Y330868D01*
X71425Y330034D01*
X72092Y328368D01*
X72092Y320034D01*
X71425Y318368D01*
X70092Y317534D01*
X66758Y317534D01*
G54D10*
X75758Y317534D02*
X75758Y330868D01*
X79092Y330868D01*
X80425Y330034D01*
X81092Y328368D01*
X81092Y320034D01*
X80425Y318368D01*
X79092Y317534D01*
X75758Y317534D01*
G54D12*
X57622Y435009D02*
X57622Y415959D01*
G54D12*
X63972Y425484D02*
X57622Y425484D01*
G54D13*
X311660Y697735D02*
X348960Y697735D01*
G54D13*
X311660Y719735D02*
X348960Y719735D01*
G54D10*
X318834Y733418D02*
X322168Y738418D01*
X322168Y725084D01*
G54D10*
X328501Y731751D02*
X330501Y730084D01*
X331168Y728418D01*
X331168Y725084D01*
G54D10*
X325834Y725084D02*
X325834Y738418D01*
X329168Y738418D01*
X330501Y737584D01*
X331168Y735918D01*
X331168Y734251D01*
X330501Y732584D01*
X329168Y731751D01*
X325834Y731751D01*
G54D10*
X334834Y733418D02*
X338168Y738418D01*
X338168Y725084D01*
G54D12*
X217203Y675481D02*
X280703Y675481D01*
G54D12*
X280703Y646113D02*
X217203Y646113D01*
G54D10*
X195855Y646288D02*
X190855Y649621D01*
X204188Y649621D01*
G54D10*
X204188Y653288D02*
X190855Y653288D01*
X190855Y656621D01*
X191688Y657955D01*
X193355Y658621D01*
X201688Y658621D01*
X203355Y657955D01*
X204188Y656621D01*
X204188Y653288D01*
G54D10*
X195855Y662288D02*
X190855Y665621D01*
X204188Y665621D01*
G54D10*
X204188Y669821D02*
X204188Y669288D01*
X203522Y669288D01*
X203522Y669821D01*
X204188Y669821D01*
X204188Y669288D01*
G54D10*
X204188Y678821D02*
X204188Y673488D01*
X203355Y673488D01*
X201688Y674155D01*
X196688Y678155D01*
X195022Y678821D01*
X193355Y678821D01*
X191688Y678155D01*
X190855Y676821D01*
X190855Y675488D01*
X191688Y674155D01*
X193355Y673488D01*
G54D12*
X279455Y694362D02*
X215955Y694362D01*
G54D12*
X215955Y723731D02*
X279455Y723731D01*
G54D10*
X230689Y740913D02*
X234022Y745913D01*
X234022Y732579D01*
G54D10*
X237689Y732579D02*
X237689Y745913D01*
X241022Y745913D01*
X242356Y745079D01*
X243022Y743413D01*
X243022Y735079D01*
X242356Y733413D01*
X241022Y732579D01*
X237689Y732579D01*
G54D10*
X246689Y740913D02*
X250022Y745913D01*
X250022Y732579D01*
G54D10*
X254222Y732579D02*
X253689Y732579D01*
X253689Y733246D01*
X254222Y733246D01*
X254222Y732579D01*
X253689Y732579D01*
G54D10*
X257889Y743413D02*
X258556Y745079D01*
X259889Y745913D01*
X261222Y745913D01*
X262556Y745079D01*
X263222Y743413D01*
X263222Y741746D01*
X262556Y740079D01*
X261222Y739246D01*
X262556Y738413D01*
X263222Y736746D01*
X263222Y735079D01*
X262556Y733413D01*
X261222Y732579D01*
X259889Y732579D01*
X258556Y733413D01*
X257889Y735079D01*
G54D12*
X279455Y599112D02*
X215955Y599112D01*
G54D12*
X215955Y628481D02*
X279455Y628481D01*
G54D10*
X225926Y585338D02*
X229260Y590338D01*
X229260Y577004D01*
G54D10*
X232926Y577004D02*
X232926Y590338D01*
X236260Y590338D01*
X237593Y589504D01*
X238260Y587838D01*
X238260Y579504D01*
X237593Y577838D01*
X236260Y577004D01*
X232926Y577004D01*
G54D10*
X241926Y585338D02*
X245260Y590338D01*
X245260Y577004D01*
G54D10*
X249460Y577004D02*
X248926Y577004D01*
X248926Y577671D01*
X249460Y577671D01*
X249460Y577004D01*
X248926Y577004D01*
G54D10*
X253126Y585338D02*
X256460Y590338D01*
X256460Y577004D01*
G54D13*
X402804Y482331D02*
X440104Y482331D01*
G54D13*
X402804Y504331D02*
X440104Y504331D01*
G54D10*
X409979Y518014D02*
X413312Y523014D01*
X413312Y509681D01*
G54D10*
X419646Y516347D02*
X421646Y514681D01*
X422312Y513014D01*
X422312Y509681D01*
G54D10*
X416979Y509681D02*
X416979Y523014D01*
X420312Y523014D01*
X421646Y522181D01*
X422312Y520514D01*
X422312Y518847D01*
X421646Y517181D01*
X420312Y516347D01*
X416979Y516347D01*
G54D10*
X431312Y523014D02*
X425979Y523014D01*
X425979Y517181D01*
X426646Y517181D01*
X427979Y518014D01*
X429312Y518014D01*
X430646Y517181D01*
X431312Y515514D01*
X431312Y512181D01*
X430646Y510514D01*
X429312Y509681D01*
X427979Y509681D01*
X426646Y510514D01*
X425979Y512181D01*
G54D13*
X398042Y248969D02*
X435342Y248969D01*
G54D13*
X398042Y270969D02*
X435342Y270969D01*
G54D10*
X443821Y262271D02*
X447154Y267271D01*
X447154Y253938D01*
G54D10*
X453488Y260604D02*
X455488Y258938D01*
X456154Y257271D01*
X456154Y253938D01*
G54D10*
X450821Y253938D02*
X450821Y267271D01*
X454154Y267271D01*
X455488Y266438D01*
X456154Y264771D01*
X456154Y263104D01*
X455488Y261438D01*
X454154Y260604D01*
X450821Y260604D01*
G54D10*
X459821Y267271D02*
X465154Y267271D01*
X464488Y265604D01*
X463154Y263104D01*
X461821Y259771D01*
X461154Y257271D01*
X461154Y253938D01*
G54D13*
X402296Y170385D02*
X402296Y133085D01*
G54D13*
X424296Y170385D02*
X424296Y133085D01*
G54D10*
X438614Y133852D02*
X433614Y137186D01*
X446948Y137186D01*
G54D10*
X440281Y143519D02*
X441948Y145519D01*
X443614Y146186D01*
X446948Y146186D01*
G54D10*
X446948Y140852D02*
X433614Y140852D01*
X433614Y144186D01*
X434448Y145519D01*
X436114Y146186D01*
X437781Y146186D01*
X439448Y145519D01*
X440281Y144186D01*
X440281Y140852D01*
G54D10*
X444448Y149852D02*
X446114Y150519D01*
X446948Y151852D01*
X446948Y153186D01*
X446114Y154519D01*
X444448Y155186D01*
X440281Y155186D01*
X439448Y155186D01*
X441114Y153186D01*
X441114Y151852D01*
X440281Y150519D01*
X438614Y149852D01*
X436114Y149852D01*
X434448Y150519D01*
X433614Y151852D01*
X433614Y153186D01*
X434448Y154519D01*
X436114Y155186D01*
X440281Y155186D01*
G54D13*
X159144Y78016D02*
X196444Y78016D01*
G54D13*
X159144Y100016D02*
X196444Y100016D01*
G54D10*
X209181Y89886D02*
X212514Y94886D01*
X212514Y81553D01*
G54D10*
X218848Y88219D02*
X220848Y86553D01*
X221514Y84886D01*
X221514Y81553D01*
G54D10*
X216181Y81553D02*
X216181Y94886D01*
X219514Y94886D01*
X220848Y94053D01*
X221514Y92386D01*
X221514Y90719D01*
X220848Y89053D01*
X219514Y88219D01*
X216181Y88219D01*
G54D10*
X225181Y89886D02*
X228514Y94886D01*
X228514Y81553D01*
G54D10*
X237514Y92386D02*
X237514Y84053D01*
X236848Y82386D01*
X235514Y81553D01*
X234181Y81553D01*
X232848Y82386D01*
X232181Y84053D01*
X232181Y92386D01*
X232848Y94053D01*
X234181Y94886D01*
X235514Y94886D01*
X236848Y94053D01*
X237514Y92386D01*
G54D13*
X22187Y564524D02*
X22187Y527224D01*
G54D13*
X44187Y564524D02*
X44187Y527224D01*
G54D10*
X32312Y573379D02*
X27312Y576712D01*
X40645Y576712D01*
G54D10*
X33978Y583046D02*
X35645Y585046D01*
X37312Y585712D01*
X40645Y585712D01*
G54D10*
X40645Y580379D02*
X27312Y580379D01*
X27312Y583712D01*
X28145Y585046D01*
X29812Y585712D01*
X31478Y585712D01*
X33145Y585046D01*
X33978Y583712D01*
X33978Y580379D01*
G54D10*
X40645Y594712D02*
X40645Y589379D01*
X39812Y589379D01*
X38145Y590046D01*
X33145Y594046D01*
X31478Y594712D01*
X29812Y594712D01*
X28145Y594046D01*
X27312Y592712D01*
X27312Y591379D01*
X28145Y590046D01*
X29812Y589379D01*
G54D13*
X22263Y280239D02*
X22263Y242939D01*
G54D13*
X44263Y280239D02*
X44263Y242939D01*
G54D10*
X46675Y211306D02*
X41675Y214640D01*
X55008Y214640D01*
G54D10*
X48342Y220973D02*
X50008Y222973D01*
X51675Y223640D01*
X55008Y223640D01*
G54D10*
X55008Y218306D02*
X41675Y218306D01*
X41675Y221640D01*
X42508Y222973D01*
X44175Y223640D01*
X45842Y223640D01*
X47508Y222973D01*
X48342Y221640D01*
X48342Y218306D01*
G54D10*
X48342Y230640D02*
X48342Y229306D01*
X47508Y227973D01*
X45842Y227306D01*
X44175Y227306D01*
X42508Y227973D01*
X41675Y229306D01*
X41675Y230640D01*
X42508Y231973D01*
X44175Y232640D01*
X45842Y232640D01*
X47508Y231973D01*
X48342Y230640D01*
X49175Y231973D01*
X50842Y232640D01*
X52508Y232640D01*
X54175Y231973D01*
X55008Y230640D01*
X55008Y229306D01*
X54175Y227973D01*
X52508Y227306D01*
X50842Y227306D01*
X49175Y227973D01*
X48342Y229306D01*
G54D13*
X106468Y424423D02*
X80093Y450798D01*
G54D13*
X90912Y408867D02*
X64537Y435242D01*
G54D10*
X96026Y459079D02*
X101919Y460257D01*
X92491Y450829D01*
G54D10*
X101683Y451065D02*
X101919Y448472D01*
X101212Y446822D01*
X98855Y444465D01*
G54D10*
X95083Y448237D02*
X104511Y457665D01*
X106868Y455308D01*
X107222Y453776D01*
X106515Y452126D01*
X105336Y450947D01*
X103686Y450240D01*
X102154Y450594D01*
X99797Y452951D01*
G54D10*
X104276Y439044D02*
X113704Y448472D01*
X104983Y445408D01*
X103804Y444230D01*
X107576Y440458D01*
G54D13*
X127051Y347809D02*
X100676Y374184D01*
G54D13*
X111495Y332253D02*
X85120Y358628D01*
G54D10*
X129309Y365002D02*
X135202Y366181D01*
X125774Y356753D01*
G54D10*
X134966Y356988D02*
X135202Y354396D01*
X134495Y352746D01*
X132138Y350389D01*
G54D10*
X128366Y354160D02*
X137794Y363588D01*
X140151Y361231D01*
X140505Y359699D01*
X139798Y358049D01*
X138619Y356870D01*
X136969Y356163D01*
X135437Y356517D01*
X133080Y358874D01*
G54D10*
X146162Y351685D02*
X146869Y353335D01*
X146515Y354867D01*
X145573Y355810D01*
X144040Y356163D01*
X142391Y355456D01*
X139444Y352510D01*
X138855Y351921D01*
X141448Y351685D01*
X142391Y350742D01*
X142744Y349210D01*
X142037Y347560D01*
X140269Y345792D01*
X138619Y345085D01*
X137087Y345439D01*
X136144Y346382D01*
X135791Y347914D01*
X136498Y349564D01*
X139444Y352510D01*
G54D12*
X81467Y644868D02*
X81467Y581368D01*
G54D12*
X52099Y581368D02*
X52099Y644868D01*
G54D10*
X65080Y670714D02*
X60080Y674047D01*
X73413Y674047D01*
G54D10*
X73413Y677714D02*
X60080Y677714D01*
X60080Y681047D01*
X60913Y682381D01*
X62580Y683047D01*
X70913Y683047D01*
X72580Y682381D01*
X73413Y681047D01*
X73413Y677714D01*
G54D10*
X73413Y692047D02*
X73413Y686714D01*
X72580Y686714D01*
X70913Y687381D01*
X65913Y691381D01*
X64246Y692047D01*
X62580Y692047D01*
X60913Y691381D01*
X60080Y690047D01*
X60080Y688714D01*
X60913Y687381D01*
X62580Y686714D01*
G54D10*
X73413Y696247D02*
X73413Y695714D01*
X72746Y695714D01*
X72746Y696247D01*
X73413Y696247D01*
X73413Y695714D01*
G54D10*
X62580Y699914D02*
X60913Y700581D01*
X60080Y701914D01*
X60080Y703247D01*
X60913Y704581D01*
X62580Y705247D01*
X64246Y705247D01*
X65913Y704581D01*
X66746Y703247D01*
X67580Y704581D01*
X69246Y705247D01*
X70913Y705247D01*
X72580Y704581D01*
X73413Y703247D01*
X73413Y701914D01*
X72580Y700581D01*
X70913Y699914D01*
G54D12*
X99962Y580972D02*
X99962Y644472D01*
G54D12*
X129331Y644472D02*
X129331Y580972D01*
G54D10*
X113016Y671319D02*
X108016Y674652D01*
X121350Y674652D01*
G54D10*
X121350Y678319D02*
X108016Y678319D01*
X108016Y681652D01*
X108850Y682986D01*
X110516Y683652D01*
X118850Y683652D01*
X120516Y682986D01*
X121350Y681652D01*
X121350Y678319D01*
G54D10*
X121350Y692652D02*
X121350Y687319D01*
X120516Y687319D01*
X118850Y687986D01*
X113850Y691986D01*
X112183Y692652D01*
X110516Y692652D01*
X108850Y691986D01*
X108016Y690652D01*
X108016Y689319D01*
X108850Y687986D01*
X110516Y687319D01*
G54D10*
X121350Y696852D02*
X121350Y696319D01*
X120683Y696319D01*
X120683Y696852D01*
X121350Y696852D01*
X121350Y696319D01*
G54D10*
X121350Y705852D02*
X121350Y700519D01*
X120516Y700519D01*
X118850Y701186D01*
X113850Y705186D01*
X112183Y705852D01*
X110516Y705852D01*
X108850Y705186D01*
X108016Y703852D01*
X108016Y702519D01*
X108850Y701186D01*
X110516Y700519D01*
G54D12*
X178056Y643260D02*
X178056Y579760D01*
G54D12*
X148687Y579760D02*
X148687Y643260D01*
G54D10*
X161668Y672281D02*
X156668Y675614D01*
X170001Y675614D01*
G54D10*
X170001Y679281D02*
X156668Y679281D01*
X156668Y682614D01*
X157501Y683948D01*
X159168Y684614D01*
X167501Y684614D01*
X169168Y683948D01*
X170001Y682614D01*
X170001Y679281D01*
G54D10*
X170001Y693614D02*
X170001Y688281D01*
X169168Y688281D01*
X167501Y688948D01*
X162501Y692948D01*
X160834Y693614D01*
X159168Y693614D01*
X157501Y692948D01*
X156668Y691614D01*
X156668Y690281D01*
X157501Y688948D01*
X159168Y688281D01*
G54D10*
X170001Y697814D02*
X170001Y697281D01*
X169334Y697281D01*
X169334Y697814D01*
X170001Y697814D01*
X170001Y697281D01*
G54D10*
X161668Y701481D02*
X156668Y704814D01*
X170001Y704814D01*
G54D12*
X392449Y544286D02*
X392449Y607786D01*
G54D12*
X421818Y607786D02*
X421818Y544286D01*
G54D10*
X405503Y631457D02*
X400503Y634791D01*
X413836Y634791D01*
G54D10*
X413836Y638457D02*
X400503Y638457D01*
X400503Y641791D01*
X401336Y643124D01*
X403003Y643791D01*
X411336Y643791D01*
X413003Y643124D01*
X413836Y641791D01*
X413836Y638457D01*
G54D10*
X403003Y647457D02*
X401336Y648124D01*
X400503Y649457D01*
X400503Y650791D01*
X401336Y652124D01*
X403003Y652791D01*
X404670Y652791D01*
X406336Y652124D01*
X407170Y650791D01*
X408003Y652124D01*
X409670Y652791D01*
X411336Y652791D01*
X413003Y652124D01*
X413836Y650791D01*
X413836Y649457D01*
X413003Y648124D01*
X411336Y647457D01*
G54D10*
X413836Y656991D02*
X413836Y656457D01*
X413170Y656457D01*
X413170Y656991D01*
X413836Y656991D01*
X413836Y656457D01*
G54D10*
X403003Y660657D02*
X401336Y661324D01*
X400503Y662657D01*
X400503Y663991D01*
X401336Y665324D01*
X403003Y665991D01*
X404670Y665991D01*
X406336Y665324D01*
X407170Y663991D01*
X408003Y665324D01*
X409670Y665991D01*
X411336Y665991D01*
X413003Y665324D01*
X413836Y663991D01*
X413836Y662657D01*
X413003Y661324D01*
X411336Y660657D01*
G54D12*
X298197Y544939D02*
X298197Y608439D01*
G54D12*
X327566Y608439D02*
X327566Y544939D01*
G54D10*
X282676Y532098D02*
X277676Y535431D01*
X291010Y535431D01*
G54D10*
X291010Y539098D02*
X277676Y539098D01*
X277676Y542431D01*
X278510Y543765D01*
X280176Y544431D01*
X288510Y544431D01*
X290176Y543765D01*
X291010Y542431D01*
X291010Y539098D01*
G54D10*
X280176Y548098D02*
X278510Y548765D01*
X277676Y550098D01*
X277676Y551431D01*
X278510Y552765D01*
X280176Y553431D01*
X281843Y553431D01*
X283510Y552765D01*
X284343Y551431D01*
X285176Y552765D01*
X286843Y553431D01*
X288510Y553431D01*
X290176Y552765D01*
X291010Y551431D01*
X291010Y550098D01*
X290176Y548765D01*
X288510Y548098D01*
G54D10*
X291010Y557631D02*
X291010Y557098D01*
X290343Y557098D01*
X290343Y557631D01*
X291010Y557631D01*
X291010Y557098D01*
G54D10*
X282676Y561298D02*
X277676Y564631D01*
X291010Y564631D01*
G54D12*
X375540Y607674D02*
X375540Y544174D01*
G54D12*
X346171Y544174D02*
X346171Y607674D01*
G54D10*
X359152Y633520D02*
X354152Y636854D01*
X367486Y636854D01*
G54D10*
X367486Y640520D02*
X354152Y640520D01*
X354152Y643854D01*
X354986Y645187D01*
X356652Y645854D01*
X364986Y645854D01*
X366652Y645187D01*
X367486Y643854D01*
X367486Y640520D01*
G54D10*
X356652Y649520D02*
X354986Y650187D01*
X354152Y651520D01*
X354152Y652854D01*
X354986Y654187D01*
X356652Y654854D01*
X358319Y654854D01*
X359986Y654187D01*
X360819Y652854D01*
X361652Y654187D01*
X363319Y654854D01*
X364986Y654854D01*
X366652Y654187D01*
X367486Y652854D01*
X367486Y651520D01*
X366652Y650187D01*
X364986Y649520D01*
G54D10*
X367486Y659054D02*
X367486Y658520D01*
X366819Y658520D01*
X366819Y659054D01*
X367486Y659054D01*
X367486Y658520D01*
G54D10*
X367486Y668054D02*
X367486Y662720D01*
X366652Y662720D01*
X364986Y663387D01*
X359986Y667387D01*
X358319Y668054D01*
X356652Y668054D01*
X354986Y667387D01*
X354152Y666054D01*
X354152Y664720D01*
X354986Y663387D01*
X356652Y662720D01*
G54D12*
X116223Y223841D02*
X116223Y287341D01*
G54D12*
X145592Y287341D02*
X145592Y223841D01*
G54D10*
X126896Y173694D02*
X121896Y177027D01*
X135230Y177027D01*
G54D10*
X135230Y180694D02*
X121896Y180694D01*
X121896Y184027D01*
X122730Y185361D01*
X124396Y186027D01*
X132730Y186027D01*
X134396Y185361D01*
X135230Y184027D01*
X135230Y180694D01*
G54D10*
X128563Y193027D02*
X128563Y191694D01*
X127730Y190361D01*
X126063Y189694D01*
X124396Y189694D01*
X122730Y190361D01*
X121896Y191694D01*
X121896Y193027D01*
X122730Y194361D01*
X124396Y195027D01*
X126063Y195027D01*
X127730Y194361D01*
X128563Y193027D01*
X129396Y194361D01*
X131063Y195027D01*
X132730Y195027D01*
X134396Y194361D01*
X135230Y193027D01*
X135230Y191694D01*
X134396Y190361D01*
X132730Y189694D01*
X131063Y189694D01*
X129396Y190361D01*
X128563Y191694D01*
G54D10*
X135230Y199227D02*
X135230Y198694D01*
X134563Y198694D01*
X134563Y199227D01*
X135230Y199227D01*
X135230Y198694D01*
G54D10*
X135230Y208227D02*
X135230Y202894D01*
X134396Y202894D01*
X132730Y203561D01*
X127730Y207561D01*
X126063Y208227D01*
X124396Y208227D01*
X122730Y207561D01*
X121896Y206227D01*
X121896Y204894D01*
X122730Y203561D01*
X124396Y202894D01*
G54D12*
X97729Y286150D02*
X97729Y222650D01*
G54D12*
X68360Y222650D02*
X68360Y286150D01*
G54D10*
X82928Y174677D02*
X77928Y178010D01*
X91262Y178010D01*
G54D10*
X91262Y181677D02*
X77928Y181677D01*
X77928Y185010D01*
X78762Y186344D01*
X80428Y187010D01*
X88762Y187010D01*
X90428Y186344D01*
X91262Y185010D01*
X91262Y181677D01*
G54D10*
X84595Y194010D02*
X84595Y192677D01*
X83762Y191344D01*
X82095Y190677D01*
X80428Y190677D01*
X78762Y191344D01*
X77928Y192677D01*
X77928Y194010D01*
X78762Y195344D01*
X80428Y196010D01*
X82095Y196010D01*
X83762Y195344D01*
X84595Y194010D01*
X85428Y195344D01*
X87095Y196010D01*
X88762Y196010D01*
X90428Y195344D01*
X91262Y194010D01*
X91262Y192677D01*
X90428Y191344D01*
X88762Y190677D01*
X87095Y190677D01*
X85428Y191344D01*
X84595Y192677D01*
G54D10*
X91262Y200210D02*
X91262Y199677D01*
X90595Y199677D01*
X90595Y200210D01*
X91262Y200210D01*
X91262Y199677D01*
G54D10*
X80428Y203877D02*
X78762Y204544D01*
X77928Y205877D01*
X77928Y207210D01*
X78762Y208544D01*
X80428Y209210D01*
X82095Y209210D01*
X83762Y208544D01*
X84595Y207210D01*
X85428Y208544D01*
X87095Y209210D01*
X88762Y209210D01*
X90428Y208544D01*
X91262Y207210D01*
X91262Y205877D01*
X90428Y204544D01*
X88762Y203877D01*
G54D12*
X192979Y286150D02*
X192979Y222650D01*
G54D12*
X163610Y222650D02*
X163610Y286150D01*
G54D10*
X205166Y258815D02*
X200166Y262148D01*
X213499Y262148D01*
G54D10*
X213499Y265815D02*
X200166Y265815D01*
X200166Y269148D01*
X200999Y270481D01*
X202666Y271148D01*
X210999Y271148D01*
X212666Y270481D01*
X213499Y269148D01*
X213499Y265815D01*
G54D10*
X206832Y278148D02*
X206832Y276815D01*
X205999Y275481D01*
X204332Y274815D01*
X202666Y274815D01*
X200999Y275481D01*
X200166Y276815D01*
X200166Y278148D01*
X200999Y279481D01*
X202666Y280148D01*
X204332Y280148D01*
X205999Y279481D01*
X206832Y278148D01*
X207666Y279481D01*
X209332Y280148D01*
X210999Y280148D01*
X212666Y279481D01*
X213499Y278148D01*
X213499Y276815D01*
X212666Y275481D01*
X210999Y274815D01*
X209332Y274815D01*
X207666Y275481D01*
X206832Y276815D01*
G54D10*
X213499Y284348D02*
X213499Y283815D01*
X212832Y283815D01*
X212832Y284348D01*
X213499Y284348D01*
X213499Y283815D01*
G54D10*
X205166Y288015D02*
X200166Y291348D01*
X213499Y291348D01*
G54D12*
X276280Y205412D02*
X212780Y205412D01*
G54D12*
X212780Y234781D02*
X276280Y234781D01*
G54D10*
X208464Y248788D02*
X211797Y253788D01*
X211797Y240454D01*
G54D10*
X215464Y240454D02*
X215464Y253788D01*
X218797Y253788D01*
X220130Y252954D01*
X220797Y251288D01*
X220797Y242954D01*
X220130Y241288D01*
X218797Y240454D01*
X215464Y240454D01*
G54D10*
X224464Y248788D02*
X227797Y253788D01*
X227797Y240454D01*
G54D10*
X236797Y251288D02*
X236797Y242954D01*
X236130Y241288D01*
X234797Y240454D01*
X233464Y240454D01*
X232130Y241288D01*
X231464Y242954D01*
X231464Y251288D01*
X232130Y252954D01*
X233464Y253788D01*
X234797Y253788D01*
X236130Y252954D01*
X236797Y251288D01*
G54D10*
X240997Y240454D02*
X240464Y240454D01*
X240464Y241121D01*
X240997Y241121D01*
X240997Y240454D01*
X240464Y240454D01*
G54D10*
X244664Y248788D02*
X247997Y253788D01*
X247997Y240454D01*
G54D12*
X276280Y110162D02*
X212780Y110162D01*
G54D12*
X212780Y139531D02*
X276280Y139531D01*
G54D10*
X157664Y123375D02*
X160997Y128375D01*
X160997Y115042D01*
G54D10*
X164664Y115042D02*
X164664Y128375D01*
X167997Y128375D01*
X169330Y127542D01*
X169997Y125875D01*
X169997Y117542D01*
X169330Y115875D01*
X167997Y115042D01*
X164664Y115042D01*
G54D10*
X173664Y123375D02*
X176997Y128375D01*
X176997Y115042D01*
G54D10*
X185997Y125875D02*
X185997Y117542D01*
X185330Y115875D01*
X183997Y115042D01*
X182664Y115042D01*
X181330Y115875D01*
X180664Y117542D01*
X180664Y125875D01*
X181330Y127542D01*
X182664Y128375D01*
X183997Y128375D01*
X185330Y127542D01*
X185997Y125875D01*
G54D10*
X190197Y115042D02*
X189664Y115042D01*
X189664Y115709D01*
X190197Y115709D01*
X190197Y115042D01*
X189664Y115042D01*
G54D10*
X193864Y125875D02*
X194530Y127542D01*
X195864Y128375D01*
X197197Y128375D01*
X198530Y127542D01*
X199197Y125875D01*
X199197Y124209D01*
X198530Y122542D01*
X197197Y121709D01*
X198530Y120875D01*
X199197Y119209D01*
X199197Y117542D01*
X198530Y115875D01*
X197197Y115042D01*
X195864Y115042D01*
X194530Y115875D01*
X193864Y117542D01*
G54D12*
X214028Y186531D02*
X277528Y186531D01*
G54D12*
X277528Y157163D02*
X214028Y157163D01*
G54D10*
X155811Y173727D02*
X159145Y178727D01*
X159145Y165394D01*
G54D10*
X162811Y165394D02*
X162811Y178727D01*
X166145Y178727D01*
X167478Y177894D01*
X168145Y176227D01*
X168145Y167894D01*
X167478Y166227D01*
X166145Y165394D01*
X162811Y165394D01*
G54D10*
X171811Y173727D02*
X175145Y178727D01*
X175145Y165394D01*
G54D10*
X184145Y176227D02*
X184145Y167894D01*
X183478Y166227D01*
X182145Y165394D01*
X180811Y165394D01*
X179478Y166227D01*
X178811Y167894D01*
X178811Y176227D01*
X179478Y177894D01*
X180811Y178727D01*
X182145Y178727D01*
X183478Y177894D01*
X184145Y176227D01*
G54D10*
X188345Y165394D02*
X187811Y165394D01*
X187811Y166061D01*
X188345Y166061D01*
X188345Y165394D01*
X187811Y165394D01*
G54D10*
X197345Y165394D02*
X192011Y165394D01*
X192011Y166227D01*
X192678Y167894D01*
X196678Y172894D01*
X197345Y174561D01*
X197345Y176227D01*
X196678Y177894D01*
X195345Y178727D01*
X194011Y178727D01*
X192678Y177894D01*
X192011Y176227D01*
G54D12*
X365180Y205412D02*
X301680Y205412D01*
G54D12*
X301680Y234781D02*
X365180Y234781D01*
G54D10*
X381501Y223388D02*
X384835Y228388D01*
X384835Y215054D01*
G54D10*
X388501Y215054D02*
X388501Y228388D01*
X391835Y228388D01*
X393168Y227554D01*
X393835Y225888D01*
X393835Y217554D01*
X393168Y215888D01*
X391835Y215054D01*
X388501Y215054D01*
G54D10*
X397501Y217554D02*
X398168Y215888D01*
X399501Y215054D01*
X400835Y215054D01*
X402168Y215888D01*
X402835Y217554D01*
X402835Y221721D01*
X402835Y222554D01*
X400835Y220888D01*
X399501Y220888D01*
X398168Y221721D01*
X397501Y223388D01*
X397501Y225888D01*
X398168Y227554D01*
X399501Y228388D01*
X400835Y228388D01*
X402168Y227554D01*
X402835Y225888D01*
X402835Y221721D01*
G54D10*
X407035Y215054D02*
X406501Y215054D01*
X406501Y215721D01*
X407035Y215721D01*
X407035Y215054D01*
X406501Y215054D01*
G54D10*
X410701Y223388D02*
X414035Y228388D01*
X414035Y215054D01*
G54D12*
X302872Y186918D02*
X366372Y186918D01*
G54D12*
X366372Y157549D02*
X302872Y157549D01*
G54D10*
X385711Y152755D02*
X380711Y156088D01*
X394044Y156088D01*
G54D10*
X394044Y159755D02*
X380711Y159755D01*
X380711Y163088D01*
X381544Y164422D01*
X383211Y165088D01*
X391544Y165088D01*
X393211Y164422D01*
X394044Y163088D01*
X394044Y159755D01*
G54D10*
X391544Y168755D02*
X393211Y169422D01*
X394044Y170755D01*
X394044Y172088D01*
X393211Y173422D01*
X391544Y174088D01*
X387378Y174088D01*
X386544Y174088D01*
X388211Y172088D01*
X388211Y170755D01*
X387378Y169422D01*
X385711Y168755D01*
X383211Y168755D01*
X381544Y169422D01*
X380711Y170755D01*
X380711Y172088D01*
X381544Y173422D01*
X383211Y174088D01*
X387378Y174088D01*
G54D10*
X394044Y178288D02*
X394044Y177755D01*
X393378Y177755D01*
X393378Y178288D01*
X394044Y178288D01*
X394044Y177755D01*
G54D10*
X394044Y187288D02*
X394044Y181955D01*
X393211Y181955D01*
X391544Y182622D01*
X386544Y186622D01*
X384878Y187288D01*
X383211Y187288D01*
X381544Y186622D01*
X380711Y185288D01*
X380711Y183955D01*
X381544Y182622D01*
X383211Y181955D01*
G54D12*
X365180Y110162D02*
X301680Y110162D01*
G54D12*
X301680Y139531D02*
X365180Y139531D01*
G54D10*
X311651Y94800D02*
X314985Y99800D01*
X314985Y86467D01*
G54D10*
X318651Y86467D02*
X318651Y99800D01*
X321985Y99800D01*
X323318Y98967D01*
X323985Y97300D01*
X323985Y88967D01*
X323318Y87300D01*
X321985Y86467D01*
X318651Y86467D01*
G54D10*
X327651Y88967D02*
X328318Y87300D01*
X329651Y86467D01*
X330985Y86467D01*
X332318Y87300D01*
X332985Y88967D01*
X332985Y93134D01*
X332985Y93967D01*
X330985Y92300D01*
X329651Y92300D01*
X328318Y93134D01*
X327651Y94800D01*
X327651Y97300D01*
X328318Y98967D01*
X329651Y99800D01*
X330985Y99800D01*
X332318Y98967D01*
X332985Y97300D01*
X332985Y93134D01*
G54D10*
X337185Y86467D02*
X336651Y86467D01*
X336651Y87134D01*
X337185Y87134D01*
X337185Y86467D01*
X336651Y86467D01*
G54D10*
X340851Y97300D02*
X341518Y98967D01*
X342851Y99800D01*
X344185Y99800D01*
X345518Y98967D01*
X346185Y97300D01*
X346185Y95634D01*
X345518Y93967D01*
X344185Y93134D01*
X345518Y92300D01*
X346185Y90634D01*
X346185Y88967D01*
X345518Y87300D01*
X344185Y86467D01*
X342851Y86467D01*
X341518Y87300D01*
X340851Y88967D01*
G54D12*
X207004Y504718D02*
X162103Y549619D01*
G54D12*
X182869Y570386D02*
X227771Y525485D01*
G54D10*
X220199Y555974D02*
X226092Y557152D01*
X216663Y547724D01*
G54D10*
X219256Y545132D02*
X228684Y554560D01*
X231041Y552203D01*
X231395Y550671D01*
X230688Y549021D01*
X224795Y543128D01*
X223145Y542421D01*
X221613Y542775D01*
X219256Y545132D01*
G54D10*
X228448Y535939D02*
X237877Y545367D01*
X229156Y542303D01*
X227977Y541125D01*
X231748Y537354D01*
G54D10*
X232361Y532027D02*
X231984Y532404D01*
X232455Y532875D01*
X232833Y532498D01*
X232361Y532027D01*
X231984Y532404D01*
G54D10*
X240846Y535326D02*
X246739Y536505D01*
X237311Y527077D01*
G54D12*
X139824Y437285D02*
X94923Y482186D01*
G54D12*
X115690Y502953D02*
X160591Y458052D01*
G54D10*
X69675Y540928D02*
X75568Y542107D01*
X66140Y532678D01*
G54D10*
X68733Y530086D02*
X78161Y539514D01*
X80518Y537157D01*
X80871Y535625D01*
X80164Y533975D01*
X74272Y528082D01*
X72622Y527375D01*
X71090Y527729D01*
X68733Y530086D01*
G54D10*
X77925Y520893D02*
X87353Y530321D01*
X78632Y527257D01*
X77454Y526079D01*
X81225Y522308D01*
G54D10*
X81838Y516981D02*
X81460Y517358D01*
X81932Y517829D01*
X82309Y517452D01*
X81838Y516981D01*
X81460Y517358D01*
G54D10*
X92091Y522048D02*
X93741Y522755D01*
X95273Y522402D01*
X96216Y521459D01*
X96569Y519927D01*
X95862Y518277D01*
X94683Y517099D01*
X93034Y516391D01*
X91501Y516745D01*
X91855Y515213D01*
X91148Y513563D01*
X89969Y512384D01*
X88319Y511677D01*
X86787Y512031D01*
X85845Y512974D01*
X85491Y514506D01*
X86198Y516156D01*
G54D12*
X150544Y535361D02*
X195445Y490459D01*
G54D12*
X174678Y469693D02*
X129777Y514594D01*
G54D10*
X199118Y475203D02*
X202452Y480203D01*
X202452Y466870D01*
G54D10*
X206118Y466870D02*
X206118Y480203D01*
X209452Y480203D01*
X210785Y479370D01*
X211452Y477703D01*
X211452Y469370D01*
X210785Y467703D01*
X209452Y466870D01*
X206118Y466870D01*
G54D10*
X219118Y466870D02*
X219118Y480203D01*
X215118Y471870D01*
X215118Y470203D01*
X220452Y470203D01*
G54D10*
X224652Y466870D02*
X224118Y466870D01*
X224118Y467537D01*
X224652Y467537D01*
X224652Y466870D01*
X224118Y466870D01*
G54D10*
X233652Y466870D02*
X228318Y466870D01*
X228318Y467703D01*
X228985Y469370D01*
X232985Y474370D01*
X233652Y476037D01*
X233652Y477703D01*
X232985Y479370D01*
X231652Y480203D01*
X230318Y480203D01*
X228985Y479370D01*
X228318Y477703D01*
G54D12*
X369101Y323662D02*
X324200Y368563D01*
G54D12*
X344967Y389330D02*
X389868Y344429D01*
G54D10*
X389440Y324911D02*
X395332Y326090D01*
X385904Y316662D01*
G54D10*
X388497Y314069D02*
X397925Y323497D01*
X400282Y321140D01*
X400636Y319608D01*
X399929Y317958D01*
X394036Y312065D01*
X392386Y311358D01*
X390854Y311712D01*
X388497Y314069D01*
G54D10*
X404289Y317133D02*
X408060Y313362D01*
X406410Y312655D01*
X403700Y311830D01*
X400400Y310416D01*
X398161Y309119D01*
X395804Y306762D01*
G54D10*
X401602Y300964D02*
X401225Y301341D01*
X401696Y301812D01*
X402074Y301435D01*
X401602Y300964D01*
X401225Y301341D01*
G54D10*
X410087Y304264D02*
X415980Y305442D01*
X406552Y296014D01*
G54D12*
X301749Y256310D02*
X256848Y301211D01*
G54D12*
X277614Y321978D02*
X322516Y277077D01*
G54D10*
X328366Y261861D02*
X331699Y266861D01*
X331699Y253528D01*
G54D10*
X335366Y253528D02*
X335366Y266861D01*
X338699Y266861D01*
X340033Y266028D01*
X340699Y264361D01*
X340699Y256028D01*
X340033Y254361D01*
X338699Y253528D01*
X335366Y253528D01*
G54D10*
X344366Y266861D02*
X349699Y266861D01*
X349033Y265194D01*
X347699Y262694D01*
X346366Y259361D01*
X345699Y256861D01*
X345699Y253528D01*
G54D10*
X353899Y253528D02*
X353366Y253528D01*
X353366Y254194D01*
X353899Y254194D01*
X353899Y253528D01*
X353366Y253528D01*
G54D10*
X357566Y264361D02*
X358233Y266028D01*
X359566Y266861D01*
X360899Y266861D01*
X362233Y266028D01*
X362899Y264361D01*
X362899Y262694D01*
X362233Y261028D01*
X360899Y260194D01*
X362233Y259361D01*
X362899Y257694D01*
X362899Y256028D01*
X362233Y254361D01*
X360899Y253528D01*
X359566Y253528D01*
X358233Y254361D01*
X357566Y256028D01*
G54D12*
X311303Y354988D02*
X356205Y310086D01*
G54D12*
X335438Y289320D02*
X290537Y334221D01*
G54D10*
X355909Y289800D02*
X359242Y294800D01*
X359242Y281467D01*
G54D10*
X362909Y281467D02*
X362909Y294800D01*
X366242Y294800D01*
X367576Y293967D01*
X368242Y292300D01*
X368242Y283967D01*
X367576Y282300D01*
X366242Y281467D01*
X362909Y281467D01*
G54D10*
X371909Y294800D02*
X377242Y294800D01*
X376576Y293134D01*
X375242Y290634D01*
X373909Y287300D01*
X373242Y284800D01*
X373242Y281467D01*
G54D10*
X381442Y281467D02*
X380909Y281467D01*
X380909Y282134D01*
X381442Y282134D01*
X381442Y281467D01*
X380909Y281467D01*
G54D10*
X390442Y281467D02*
X385109Y281467D01*
X385109Y282300D01*
X385776Y283967D01*
X389776Y288967D01*
X390442Y290634D01*
X390442Y292300D01*
X389776Y293967D01*
X388442Y294800D01*
X387109Y294800D01*
X385776Y293967D01*
X385109Y292300D01*
G54D12*
X124210Y389959D02*
X169112Y434861D01*
G54D12*
X189878Y414094D02*
X144977Y369192D01*
G54D10*
X184099Y440661D02*
X187432Y445661D01*
X187432Y432327D01*
G54D10*
X191099Y432327D02*
X191099Y445661D01*
X194432Y445661D01*
X195765Y444827D01*
X196432Y443161D01*
X196432Y434827D01*
X195765Y433161D01*
X194432Y432327D01*
X191099Y432327D01*
G54D10*
X205432Y443161D02*
X204765Y444827D01*
X203432Y445661D01*
X202099Y445661D01*
X200765Y444827D01*
X200099Y443161D01*
X200099Y438994D01*
X200099Y438161D01*
X202099Y439827D01*
X203432Y439827D01*
X204765Y438994D01*
X205432Y437327D01*
X205432Y434827D01*
X204765Y433161D01*
X203432Y432327D01*
X202099Y432327D01*
X200765Y433161D01*
X200099Y434827D01*
X200099Y438994D01*
G54D10*
X209632Y432327D02*
X209099Y432327D01*
X209099Y432994D01*
X209632Y432994D01*
X209632Y432327D01*
X209099Y432327D01*
G54D10*
X213299Y443161D02*
X213965Y444827D01*
X215299Y445661D01*
X216632Y445661D01*
X217965Y444827D01*
X218632Y443161D01*
X218632Y441494D01*
X217965Y439827D01*
X216632Y438994D01*
X217965Y438161D01*
X218632Y436494D01*
X218632Y434827D01*
X217965Y433161D01*
X216632Y432327D01*
X215299Y432327D01*
X213965Y433161D01*
X213299Y434827D01*
G54D12*
X191618Y322663D02*
X236520Y367565D01*
G54D12*
X257286Y346798D02*
X212385Y301897D01*
G54D10*
X255449Y373546D02*
X258782Y378546D01*
X258782Y365213D01*
G54D10*
X262449Y365213D02*
X262449Y378546D01*
X265782Y378546D01*
X267116Y377713D01*
X267782Y376046D01*
X267782Y367713D01*
X267116Y366046D01*
X265782Y365213D01*
X262449Y365213D01*
G54D10*
X276782Y376046D02*
X276116Y377713D01*
X274782Y378546D01*
X273449Y378546D01*
X272116Y377713D01*
X271449Y376046D01*
X271449Y371879D01*
X271449Y371046D01*
X273449Y372713D01*
X274782Y372713D01*
X276116Y371879D01*
X276782Y370213D01*
X276782Y367713D01*
X276116Y366046D01*
X274782Y365213D01*
X273449Y365213D01*
X272116Y366046D01*
X271449Y367713D01*
X271449Y371879D01*
G54D10*
X280982Y365213D02*
X280449Y365213D01*
X280449Y365879D01*
X280982Y365879D01*
X280982Y365213D01*
X280449Y365213D01*
G54D10*
X284649Y373546D02*
X287982Y378546D01*
X287982Y365213D01*
G54D12*
X221673Y380017D02*
X176772Y335116D01*
G54D12*
X156005Y355883D02*
X200906Y400784D01*
G54D10*
X216880Y408149D02*
X220213Y413149D01*
X220213Y399816D01*
G54D10*
X223880Y399816D02*
X223880Y413149D01*
X227213Y413149D01*
X228546Y412316D01*
X229213Y410649D01*
X229213Y402316D01*
X228546Y400649D01*
X227213Y399816D01*
X223880Y399816D01*
G54D10*
X238213Y410649D02*
X237546Y412316D01*
X236213Y413149D01*
X234880Y413149D01*
X233546Y412316D01*
X232880Y410649D01*
X232880Y406483D01*
X232880Y405649D01*
X234880Y407316D01*
X236213Y407316D01*
X237546Y406483D01*
X238213Y404816D01*
X238213Y402316D01*
X237546Y400649D01*
X236213Y399816D01*
X234880Y399816D01*
X233546Y400649D01*
X232880Y402316D01*
X232880Y406483D01*
G54D10*
X242413Y399816D02*
X241880Y399816D01*
X241880Y400483D01*
X242413Y400483D01*
X242413Y399816D01*
X241880Y399816D01*
G54D10*
X251413Y399816D02*
X246080Y399816D01*
X246080Y400649D01*
X246746Y402316D01*
X250746Y407316D01*
X251413Y408983D01*
X251413Y410649D01*
X250746Y412316D01*
X249413Y413149D01*
X248080Y413149D01*
X246746Y412316D01*
X246080Y410649D01*
G54D12*
X289336Y450143D02*
X334238Y495044D01*
G54D12*
X355004Y474278D02*
X310103Y429376D01*
G54D10*
X353269Y494820D02*
X352090Y500713D01*
X361519Y491284D01*
G54D10*
X364111Y493877D02*
X354683Y503305D01*
X357040Y505662D01*
X358572Y506016D01*
X360222Y505309D01*
X366115Y499416D01*
X366822Y497766D01*
X366468Y496234D01*
X364111Y493877D01*
G54D10*
X364818Y513440D02*
X361047Y509669D01*
X365172Y505544D01*
X365643Y506016D01*
X365997Y507548D01*
X366940Y508491D01*
X368472Y508844D01*
X370122Y508137D01*
X372479Y505780D01*
X373186Y504130D01*
X372832Y502598D01*
X371890Y501655D01*
X370357Y501302D01*
X368708Y502009D01*
G54D10*
X377216Y506982D02*
X376839Y506605D01*
X376368Y507076D01*
X376745Y507454D01*
X377216Y506982D01*
X376839Y506605D01*
G54D10*
X383580Y513346D02*
X379809Y509575D01*
X379220Y510164D01*
X378513Y511814D01*
X377806Y518178D01*
X377098Y519828D01*
X375920Y521006D01*
X374270Y521714D01*
X372738Y521360D01*
X371795Y520417D01*
X371442Y518885D01*
X372149Y517235D01*
G54D12*
X320185Y508290D02*
X275284Y463389D01*
G54D12*
X254517Y484156D02*
X299418Y529057D01*
G54D10*
X245910Y499260D02*
X244732Y505153D01*
X254160Y495725D01*
G54D10*
X256753Y498318D02*
X247325Y507746D01*
X249682Y510103D01*
X251214Y510456D01*
X252864Y509749D01*
X258756Y503857D01*
X259463Y502207D01*
X259110Y500675D01*
X256753Y498318D01*
G54D10*
X257460Y517881D02*
X253689Y514110D01*
X257813Y509985D01*
X258285Y510456D01*
X258638Y511988D01*
X259581Y512931D01*
X261113Y513285D01*
X262763Y512578D01*
X265120Y510221D01*
X265827Y508571D01*
X265474Y507039D01*
X264531Y506096D01*
X262999Y505742D01*
X261349Y506449D01*
G54D10*
X269858Y511423D02*
X269481Y511046D01*
X269009Y511517D01*
X269386Y511894D01*
X269858Y511423D01*
X269481Y511046D01*
G54D10*
X264790Y521676D02*
X264083Y523326D01*
X264437Y524858D01*
X265379Y525801D01*
X266912Y526154D01*
X268561Y525447D01*
X269740Y524268D01*
X270447Y522619D01*
X270094Y521087D01*
X271626Y521440D01*
X273276Y520733D01*
X274454Y519554D01*
X275161Y517905D01*
X274808Y516372D01*
X273865Y515430D01*
X272333Y515076D01*
X270683Y515783D01*
G54D12*
X387356Y440161D02*
X342455Y395259D01*
G54D12*
X321688Y416026D02*
X366589Y460927D01*
G54D10*
X374200Y404937D02*
X373022Y410830D01*
X382450Y401401D01*
G54D10*
X385043Y403994D02*
X375615Y413422D01*
X377972Y415779D01*
X379504Y416133D01*
X381154Y415426D01*
X387046Y409533D01*
X387753Y407883D01*
X387400Y406351D01*
X385043Y403994D01*
G54D10*
X385750Y423557D02*
X381978Y419786D01*
X386103Y415661D01*
X386575Y416133D01*
X386928Y417665D01*
X387871Y418608D01*
X389403Y418961D01*
X391053Y418254D01*
X393410Y415897D01*
X394117Y414247D01*
X393764Y412715D01*
X392821Y411772D01*
X391289Y411419D01*
X389639Y412126D01*
G54D10*
X398148Y417099D02*
X397771Y416722D01*
X397299Y417193D01*
X397676Y417571D01*
X398148Y417099D01*
X397771Y416722D01*
G54D10*
X394848Y425584D02*
X393669Y431477D01*
X403098Y422049D01*
G54D10*
X563591Y399568D02*
X568924Y399568D01*
G54D10*
X566258Y402901D02*
X566258Y396234D01*
G54D10*
X577924Y407068D02*
X572591Y407068D01*
X572591Y401234D01*
X573258Y401234D01*
X574591Y402068D01*
X575924Y402068D01*
X577258Y401234D01*
X577924Y399568D01*
X577924Y396234D01*
X577258Y394568D01*
X575924Y393734D01*
X574591Y393734D01*
X573258Y394568D01*
X572591Y396234D01*
G54D10*
X581591Y407068D02*
X584924Y393734D01*
X588258Y407068D01*
G54D10*
X566280Y370834D02*
X566947Y369168D01*
X568280Y368334D01*
X569614Y368334D01*
X570947Y369168D01*
X571614Y370834D01*
X571614Y372501D01*
X570947Y374168D01*
X569614Y375001D01*
X568280Y375001D01*
X566947Y375834D01*
X566280Y377501D01*
X566280Y379168D01*
X566947Y380834D01*
X568280Y381668D01*
X569614Y381668D01*
X570947Y380834D01*
X571614Y379168D01*
G54D10*
X580614Y370834D02*
X579947Y369168D01*
X578614Y368334D01*
X577280Y368334D01*
X575947Y369168D01*
X575280Y370834D01*
X575280Y379168D01*
X575947Y380834D01*
X577280Y381668D01*
X578614Y381668D01*
X579947Y380834D01*
X580614Y379168D01*
G54D10*
X584280Y381668D02*
X584280Y368334D01*
X588947Y368334D01*
G54D10*
X566766Y345434D02*
X567432Y343768D01*
X568766Y342934D01*
X570099Y342934D01*
X571432Y343768D01*
X572099Y345434D01*
X572099Y347101D01*
X571432Y348768D01*
X570099Y349601D01*
X568766Y349601D01*
X567432Y350434D01*
X566766Y352101D01*
X566766Y353768D01*
X567432Y355434D01*
X568766Y356268D01*
X570099Y356268D01*
X571432Y355434D01*
X572099Y353768D01*
G54D10*
X575766Y342934D02*
X575766Y356268D01*
X579099Y356268D01*
X580432Y355434D01*
X581099Y353768D01*
X581099Y345434D01*
X580432Y343768D01*
X579099Y342934D01*
X575766Y342934D01*
G54D10*
X584766Y342934D02*
X588099Y356268D01*
X591433Y342934D01*
G54D10*
X586099Y347934D02*
X590099Y347934D01*
G54D11*
X905347Y703297D02*
X910347Y716630D01*
X915347Y703297D01*
G54D11*
X907347Y708297D02*
X913347Y708297D01*
G54D11*
X537046Y490572D02*
X537046Y503905D01*
X542046Y503905D01*
X544046Y503072D01*
X545046Y501405D01*
X545046Y499739D01*
X544046Y498072D01*
X542046Y497239D01*
X544046Y496405D01*
X545046Y494739D01*
X545046Y493072D01*
X544046Y491405D01*
X542046Y490572D01*
X537046Y490572D01*
G54D11*
X537046Y497239D02*
X542046Y497239D01*
G54D11*
X565622Y503272D02*
X565622Y516605D01*
X570622Y516605D01*
X572622Y515772D01*
X573622Y514105D01*
X573622Y505772D01*
X572622Y504105D01*
X570622Y503272D01*
X565622Y503272D01*
G54D11*
X976869Y704209D02*
X975869Y702543D01*
X973869Y701709D01*
X971869Y701709D01*
X969869Y702543D01*
X968869Y704209D01*
X968869Y712543D01*
X969869Y714209D01*
X971869Y715043D01*
X973869Y715043D01*
X975869Y714209D01*
X976869Y712543D01*
G54D11*
X956820Y531847D02*
X949820Y531847D01*
X949820Y545180D01*
X956820Y545180D01*
G54D11*
X949820Y538514D02*
X956820Y538514D01*
G54D11*
X633908Y307986D02*
X633908Y321319D01*
X640908Y321319D01*
G54D11*
X633908Y314652D02*
X640908Y314652D01*
G54D11*
X941097Y219426D02*
X945097Y219426D01*
X945097Y215259D01*
X944097Y213593D01*
X942097Y212759D01*
X940097Y212759D01*
X938097Y213593D01*
X937097Y215259D01*
X937097Y223593D01*
X938097Y225259D01*
X940097Y226093D01*
X942097Y226093D01*
X944097Y225259D01*
X945097Y223593D01*
G54D11*
X537047Y169897D02*
X537047Y183230D01*
G54D11*
X545047Y169897D02*
X545047Y183230D01*
G54D11*
X537047Y176564D02*
X545047Y176564D01*
G54D11*
X967259Y166722D02*
X975259Y166722D01*
G54D11*
X971259Y166722D02*
X971259Y180055D01*
G54D11*
X967259Y180055D02*
X975259Y180055D01*
G54D11*
X640275Y126104D02*
X640275Y115270D01*
X639275Y113604D01*
X637275Y112770D01*
X635275Y112770D01*
X633275Y113604D01*
X632275Y115270D01*
G54D12*
X554268Y424960D02*
X554268Y431360D01*
X547968Y437660D01*
X535168Y437660D01*
X528868Y431360D01*
X528868Y418560D01*
X535168Y412260D01*
X547968Y412260D01*
X554268Y418560D01*
X554268Y424960D01*
G54D12*
X554268Y399560D02*
X554268Y405960D01*
X547968Y412260D01*
X535168Y412260D01*
X528868Y405960D01*
X528868Y393160D01*
X535168Y386860D01*
X547968Y386860D01*
X554268Y393160D01*
X554268Y399560D01*
G54D12*
X554268Y374160D02*
X554268Y380560D01*
X547968Y386860D01*
X535168Y386860D01*
X528868Y380560D01*
X528868Y367760D01*
X535168Y361460D01*
X547968Y361460D01*
X554268Y367760D01*
X554268Y374160D01*
G54D12*
X554268Y348760D02*
X554268Y355160D01*
X547968Y361460D01*
X535168Y361460D01*
X528868Y355160D01*
X528868Y342360D01*
X535168Y336060D01*
X547968Y336060D01*
X554268Y342360D01*
X554268Y348760D01*
G54D12*
X554268Y323360D02*
X554268Y329760D01*
X547968Y336060D01*
X535168Y336060D01*
X528868Y329760D01*
X528868Y316960D01*
X535168Y310660D01*
X547968Y310660D01*
X554268Y316960D01*
X554268Y323360D01*
G54D10*
X533936Y445364D02*
X525936Y445364D01*
X525936Y446197D01*
X526936Y447864D01*
X532936Y452864D01*
X533936Y454531D01*
X533936Y456197D01*
X532936Y457864D01*
X530936Y458697D01*
X528936Y458697D01*
X526936Y457864D01*
X525936Y456197D01*
G54D10*
X537603Y458697D02*
X547603Y445364D01*
G54D10*
X537603Y445364D02*
X547603Y458697D01*
G54D10*
X551270Y447864D02*
X552270Y446197D01*
X554270Y445364D01*
X556270Y445364D01*
X558270Y446197D01*
X559270Y447864D01*
X559270Y449531D01*
X558270Y451197D01*
X556270Y452031D01*
X554270Y452031D01*
X552270Y452864D01*
X551270Y454531D01*
X551270Y456197D01*
X552270Y457864D01*
X554270Y458697D01*
X556270Y458697D01*
X558270Y457864D01*
X559270Y456197D01*
G54D10*
X562937Y453697D02*
X567937Y458697D01*
X567937Y445364D01*
G54D10*
X564424Y330868D02*
X567758Y317534D01*
X571091Y330868D01*
G54D10*
X574758Y317534D02*
X574758Y330868D01*
X578092Y330868D01*
X579425Y330034D01*
X580092Y328368D01*
X580092Y320034D01*
X579425Y318368D01*
X578092Y317534D01*
X574758Y317534D01*
G54D10*
X583758Y317534D02*
X583758Y330868D01*
X587092Y330868D01*
X588425Y330034D01*
X589092Y328368D01*
X589092Y320034D01*
X588425Y318368D01*
X587092Y317534D01*
X583758Y317534D01*
G54D12*
X565622Y435009D02*
X565622Y415959D01*
G54D12*
X571972Y425484D02*
X565622Y425484D01*
G54D13*
X819660Y697735D02*
X856960Y697735D01*
G54D13*
X819660Y719735D02*
X856960Y719735D01*
G54D10*
X832168Y725084D02*
X826834Y725084D01*
X826834Y725918D01*
X827501Y727584D01*
X831501Y732584D01*
X832168Y734251D01*
X832168Y735918D01*
X831501Y737584D01*
X830168Y738418D01*
X828834Y738418D01*
X827501Y737584D01*
X826834Y735918D01*
G54D10*
X838501Y731751D02*
X840501Y730084D01*
X841168Y728418D01*
X841168Y725084D01*
G54D10*
X835834Y725084D02*
X835834Y738418D01*
X839168Y738418D01*
X840501Y737584D01*
X841168Y735918D01*
X841168Y734251D01*
X840501Y732584D01*
X839168Y731751D01*
X835834Y731751D01*
G54D10*
X844834Y733418D02*
X848168Y738418D01*
X848168Y725084D01*
G54D12*
X725203Y675481D02*
X788703Y675481D01*
G54D12*
X788703Y646113D02*
X725203Y646113D01*
G54D10*
X712188Y651621D02*
X712188Y646288D01*
X711355Y646288D01*
X709688Y646955D01*
X704688Y650955D01*
X703022Y651621D01*
X701355Y651621D01*
X699688Y650955D01*
X698855Y649621D01*
X698855Y648288D01*
X699688Y646955D01*
X701355Y646288D01*
G54D10*
X712188Y655288D02*
X698855Y655288D01*
X698855Y658621D01*
X699688Y659955D01*
X701355Y660621D01*
X709688Y660621D01*
X711355Y659955D01*
X712188Y658621D01*
X712188Y655288D01*
G54D10*
X703855Y664288D02*
X698855Y667621D01*
X712188Y667621D01*
G54D10*
X712188Y671821D02*
X712188Y671288D01*
X711522Y671288D01*
X711522Y671821D01*
X712188Y671821D01*
X712188Y671288D01*
G54D10*
X712188Y680821D02*
X712188Y675488D01*
X711355Y675488D01*
X709688Y676155D01*
X704688Y680155D01*
X703022Y680821D01*
X701355Y680821D01*
X699688Y680155D01*
X698855Y678821D01*
X698855Y677488D01*
X699688Y676155D01*
X701355Y675488D01*
G54D12*
X787455Y694362D02*
X723955Y694362D01*
G54D12*
X723955Y723731D02*
X787455Y723731D01*
G54D10*
X744022Y732579D02*
X738689Y732579D01*
X738689Y733413D01*
X739356Y735079D01*
X743356Y740079D01*
X744022Y741746D01*
X744022Y743413D01*
X743356Y745079D01*
X742022Y745913D01*
X740689Y745913D01*
X739356Y745079D01*
X738689Y743413D01*
G54D10*
X747689Y732579D02*
X747689Y745913D01*
X751022Y745913D01*
X752356Y745079D01*
X753022Y743413D01*
X753022Y735079D01*
X752356Y733413D01*
X751022Y732579D01*
X747689Y732579D01*
G54D10*
X756689Y740913D02*
X760022Y745913D01*
X760022Y732579D01*
G54D10*
X764222Y732579D02*
X763689Y732579D01*
X763689Y733246D01*
X764222Y733246D01*
X764222Y732579D01*
X763689Y732579D01*
G54D10*
X767889Y743413D02*
X768556Y745079D01*
X769889Y745913D01*
X771222Y745913D01*
X772556Y745079D01*
X773222Y743413D01*
X773222Y741746D01*
X772556Y740079D01*
X771222Y739246D01*
X772556Y738413D01*
X773222Y736746D01*
X773222Y735079D01*
X772556Y733413D01*
X771222Y732579D01*
X769889Y732579D01*
X768556Y733413D01*
X767889Y735079D01*
G54D12*
X787455Y599112D02*
X723955Y599112D01*
G54D12*
X723955Y628481D02*
X787455Y628481D01*
G54D10*
X739260Y577004D02*
X733926Y577004D01*
X733926Y577838D01*
X734593Y579504D01*
X738593Y584504D01*
X739260Y586171D01*
X739260Y587838D01*
X738593Y589504D01*
X737260Y590338D01*
X735926Y590338D01*
X734593Y589504D01*
X733926Y587838D01*
G54D10*
X742926Y577004D02*
X742926Y590338D01*
X746260Y590338D01*
X747593Y589504D01*
X748260Y587838D01*
X748260Y579504D01*
X747593Y577838D01*
X746260Y577004D01*
X742926Y577004D01*
G54D10*
X751926Y585338D02*
X755260Y590338D01*
X755260Y577004D01*
G54D10*
X759460Y577004D02*
X758926Y577004D01*
X758926Y577671D01*
X759460Y577671D01*
X759460Y577004D01*
X758926Y577004D01*
G54D10*
X763126Y585338D02*
X766460Y590338D01*
X766460Y577004D01*
G54D13*
X910804Y482331D02*
X948104Y482331D01*
G54D13*
X910804Y504331D02*
X948104Y504331D01*
G54D10*
X923312Y509681D02*
X917979Y509681D01*
X917979Y510514D01*
X918646Y512181D01*
X922646Y517181D01*
X923312Y518847D01*
X923312Y520514D01*
X922646Y522181D01*
X921312Y523014D01*
X919979Y523014D01*
X918646Y522181D01*
X917979Y520514D01*
G54D10*
X929646Y516347D02*
X931646Y514681D01*
X932312Y513014D01*
X932312Y509681D01*
G54D10*
X926979Y509681D02*
X926979Y523014D01*
X930312Y523014D01*
X931646Y522181D01*
X932312Y520514D01*
X932312Y518847D01*
X931646Y517181D01*
X930312Y516347D01*
X926979Y516347D01*
G54D10*
X941312Y523014D02*
X935979Y523014D01*
X935979Y517181D01*
X936646Y517181D01*
X937979Y518014D01*
X939312Y518014D01*
X940646Y517181D01*
X941312Y515514D01*
X941312Y512181D01*
X940646Y510514D01*
X939312Y509681D01*
X937979Y509681D01*
X936646Y510514D01*
X935979Y512181D01*
G54D13*
X906042Y248969D02*
X943342Y248969D01*
G54D13*
X906042Y270969D02*
X943342Y270969D01*
G54D10*
X957154Y253938D02*
X951821Y253938D01*
X951821Y254771D01*
X952488Y256438D01*
X956488Y261438D01*
X957154Y263104D01*
X957154Y264771D01*
X956488Y266438D01*
X955154Y267271D01*
X953821Y267271D01*
X952488Y266438D01*
X951821Y264771D01*
G54D10*
X963488Y260604D02*
X965488Y258938D01*
X966154Y257271D01*
X966154Y253938D01*
G54D10*
X960821Y253938D02*
X960821Y267271D01*
X964154Y267271D01*
X965488Y266438D01*
X966154Y264771D01*
X966154Y263104D01*
X965488Y261438D01*
X964154Y260604D01*
X960821Y260604D01*
G54D10*
X969821Y267271D02*
X975154Y267271D01*
X974488Y265604D01*
X973154Y263104D01*
X971821Y259771D01*
X971154Y257271D01*
X971154Y253938D01*
G54D13*
X667144Y78016D02*
X704444Y78016D01*
G54D13*
X667144Y100016D02*
X704444Y100016D01*
G54D10*
X724102Y81553D02*
X718768Y81553D01*
X718768Y82386D01*
X719435Y84053D01*
X723435Y89053D01*
X724102Y90719D01*
X724102Y92386D01*
X723435Y94053D01*
X722102Y94886D01*
X720768Y94886D01*
X719435Y94053D01*
X718768Y92386D01*
G54D10*
X730435Y88219D02*
X732435Y86553D01*
X733102Y84886D01*
X733102Y81553D01*
G54D10*
X727768Y81553D02*
X727768Y94886D01*
X731102Y94886D01*
X732435Y94053D01*
X733102Y92386D01*
X733102Y90719D01*
X732435Y89053D01*
X731102Y88219D01*
X727768Y88219D01*
G54D10*
X736768Y89886D02*
X740102Y94886D01*
X740102Y81553D01*
G54D10*
X749102Y92386D02*
X749102Y84053D01*
X748435Y82386D01*
X747102Y81553D01*
X745768Y81553D01*
X744435Y82386D01*
X743768Y84053D01*
X743768Y92386D01*
X744435Y94053D01*
X745768Y94886D01*
X747102Y94886D01*
X748435Y94053D01*
X749102Y92386D01*
G54D13*
X530187Y564524D02*
X530187Y527224D01*
G54D13*
X552187Y564524D02*
X552187Y527224D01*
G54D10*
X548645Y578712D02*
X548645Y573379D01*
X547812Y573379D01*
X546145Y574046D01*
X541145Y578046D01*
X539478Y578712D01*
X537812Y578712D01*
X536145Y578046D01*
X535312Y576712D01*
X535312Y575379D01*
X536145Y574046D01*
X537812Y573379D01*
G54D10*
X541978Y585046D02*
X543645Y587046D01*
X545312Y587712D01*
X548645Y587712D01*
G54D10*
X548645Y582379D02*
X535312Y582379D01*
X535312Y585712D01*
X536145Y587046D01*
X537812Y587712D01*
X539478Y587712D01*
X541145Y587046D01*
X541978Y585712D01*
X541978Y582379D01*
G54D10*
X548645Y596712D02*
X548645Y591379D01*
X547812Y591379D01*
X546145Y592046D01*
X541145Y596046D01*
X539478Y596712D01*
X537812Y596712D01*
X536145Y596046D01*
X535312Y594712D01*
X535312Y593379D01*
X536145Y592046D01*
X537812Y591379D01*
G54D13*
X530263Y280239D02*
X530263Y242939D01*
G54D13*
X552263Y280239D02*
X552263Y242939D01*
G54D10*
X563008Y216640D02*
X563008Y211306D01*
X562175Y211306D01*
X560508Y211973D01*
X555508Y215973D01*
X553842Y216640D01*
X552175Y216640D01*
X550508Y215973D01*
X549675Y214640D01*
X549675Y213306D01*
X550508Y211973D01*
X552175Y211306D01*
G54D10*
X556342Y222973D02*
X558008Y224973D01*
X559675Y225640D01*
X563008Y225640D01*
G54D10*
X563008Y220306D02*
X549675Y220306D01*
X549675Y223640D01*
X550508Y224973D01*
X552175Y225640D01*
X553842Y225640D01*
X555508Y224973D01*
X556342Y223640D01*
X556342Y220306D01*
G54D10*
X556342Y232640D02*
X556342Y231306D01*
X555508Y229973D01*
X553842Y229306D01*
X552175Y229306D01*
X550508Y229973D01*
X549675Y231306D01*
X549675Y232640D01*
X550508Y233973D01*
X552175Y234640D01*
X553842Y234640D01*
X555508Y233973D01*
X556342Y232640D01*
X557175Y233973D01*
X558842Y234640D01*
X560508Y234640D01*
X562175Y233973D01*
X563008Y232640D01*
X563008Y231306D01*
X562175Y229973D01*
X560508Y229306D01*
X558842Y229306D01*
X557175Y229973D01*
X556342Y231306D01*
G54D13*
X614468Y424423D02*
X588093Y450798D01*
G54D13*
X598912Y408867D02*
X572537Y435242D01*
G54D10*
X601905Y449415D02*
X598134Y453186D01*
X598723Y453776D01*
X600373Y454483D01*
X606737Y455190D01*
X608387Y455897D01*
X609565Y457075D01*
X610272Y458725D01*
X609919Y460257D01*
X608976Y461200D01*
X607444Y461554D01*
X605794Y460847D01*
G54D10*
X611097Y449651D02*
X611333Y447058D01*
X610626Y445408D01*
X608269Y443051D01*
G54D10*
X604498Y446822D02*
X613926Y456250D01*
X616283Y453893D01*
X616636Y452361D01*
X615929Y450712D01*
X614751Y449533D01*
X613101Y448826D01*
X611569Y449179D01*
X609212Y451536D01*
G54D10*
X613690Y437630D02*
X623118Y447058D01*
X614397Y443994D01*
X613218Y442815D01*
X616990Y439044D01*
G54D13*
X635051Y347809D02*
X608676Y374184D01*
G54D13*
X619495Y332253D02*
X593120Y358628D01*
G54D10*
X635188Y355338D02*
X631417Y359110D01*
X632006Y359699D01*
X633656Y360406D01*
X640020Y361113D01*
X641670Y361820D01*
X642848Y362999D01*
X643555Y364649D01*
X643202Y366181D01*
X642259Y367124D01*
X640727Y367477D01*
X639077Y366770D01*
G54D10*
X644380Y355574D02*
X644616Y352981D01*
X643909Y351332D01*
X641552Y348974D01*
G54D10*
X637780Y352746D02*
X647209Y362174D01*
X649566Y359817D01*
X649919Y358285D01*
X649212Y356635D01*
X648034Y355456D01*
X646384Y354749D01*
X644852Y355103D01*
X642495Y357460D01*
G54D10*
X655576Y350271D02*
X656283Y351921D01*
X655930Y353453D01*
X654987Y354396D01*
X653455Y354749D01*
X651805Y354042D01*
X648858Y351096D01*
X648269Y350507D01*
X650862Y350271D01*
X651805Y349328D01*
X652158Y347796D01*
X651451Y346146D01*
X649684Y344378D01*
X648034Y343671D01*
X646502Y344025D01*
X645559Y344968D01*
X645205Y346500D01*
X645912Y348150D01*
X648858Y351096D01*
G54D12*
X589467Y644868D02*
X589467Y581368D01*
G54D12*
X560099Y581368D02*
X560099Y644868D01*
G54D10*
X581413Y676047D02*
X581413Y670714D01*
X580580Y670714D01*
X578913Y671381D01*
X573913Y675381D01*
X572246Y676047D01*
X570580Y676047D01*
X568913Y675381D01*
X568080Y674047D01*
X568080Y672714D01*
X568913Y671381D01*
X570580Y670714D01*
G54D10*
X581413Y679714D02*
X568080Y679714D01*
X568080Y683047D01*
X568913Y684381D01*
X570580Y685047D01*
X578913Y685047D01*
X580580Y684381D01*
X581413Y683047D01*
X581413Y679714D01*
G54D10*
X581413Y694047D02*
X581413Y688714D01*
X580580Y688714D01*
X578913Y689381D01*
X573913Y693381D01*
X572246Y694047D01*
X570580Y694047D01*
X568913Y693381D01*
X568080Y692047D01*
X568080Y690714D01*
X568913Y689381D01*
X570580Y688714D01*
G54D10*
X581413Y698247D02*
X581413Y697714D01*
X580746Y697714D01*
X580746Y698247D01*
X581413Y698247D01*
X581413Y697714D01*
G54D10*
X570580Y701914D02*
X568913Y702581D01*
X568080Y703914D01*
X568080Y705247D01*
X568913Y706581D01*
X570580Y707247D01*
X572246Y707247D01*
X573913Y706581D01*
X574746Y705247D01*
X575580Y706581D01*
X577246Y707247D01*
X578913Y707247D01*
X580580Y706581D01*
X581413Y705247D01*
X581413Y703914D01*
X580580Y702581D01*
X578913Y701914D01*
G54D12*
X607962Y580972D02*
X607962Y644472D01*
G54D12*
X637331Y644472D02*
X637331Y580972D01*
G54D10*
X629350Y676652D02*
X629350Y671319D01*
X628516Y671319D01*
X626850Y671986D01*
X621850Y675986D01*
X620183Y676652D01*
X618516Y676652D01*
X616850Y675986D01*
X616016Y674652D01*
X616016Y673319D01*
X616850Y671986D01*
X618516Y671319D01*
G54D10*
X629350Y680319D02*
X616016Y680319D01*
X616016Y683652D01*
X616850Y684986D01*
X618516Y685652D01*
X626850Y685652D01*
X628516Y684986D01*
X629350Y683652D01*
X629350Y680319D01*
G54D10*
X629350Y694652D02*
X629350Y689319D01*
X628516Y689319D01*
X626850Y689986D01*
X621850Y693986D01*
X620183Y694652D01*
X618516Y694652D01*
X616850Y693986D01*
X616016Y692652D01*
X616016Y691319D01*
X616850Y689986D01*
X618516Y689319D01*
G54D10*
X629350Y698852D02*
X629350Y698319D01*
X628683Y698319D01*
X628683Y698852D01*
X629350Y698852D01*
X629350Y698319D01*
G54D10*
X629350Y707852D02*
X629350Y702519D01*
X628516Y702519D01*
X626850Y703186D01*
X621850Y707186D01*
X620183Y707852D01*
X618516Y707852D01*
X616850Y707186D01*
X616016Y705852D01*
X616016Y704519D01*
X616850Y703186D01*
X618516Y702519D01*
G54D12*
X686056Y643260D02*
X686056Y579760D01*
G54D12*
X656687Y579760D02*
X656687Y643260D01*
G54D10*
X678001Y677614D02*
X678001Y672281D01*
X677168Y672281D01*
X675501Y672948D01*
X670501Y676948D01*
X668834Y677614D01*
X667168Y677614D01*
X665501Y676948D01*
X664668Y675614D01*
X664668Y674281D01*
X665501Y672948D01*
X667168Y672281D01*
G54D10*
X678001Y681281D02*
X664668Y681281D01*
X664668Y684614D01*
X665501Y685948D01*
X667168Y686614D01*
X675501Y686614D01*
X677168Y685948D01*
X678001Y684614D01*
X678001Y681281D01*
G54D10*
X678001Y695614D02*
X678001Y690281D01*
X677168Y690281D01*
X675501Y690948D01*
X670501Y694948D01*
X668834Y695614D01*
X667168Y695614D01*
X665501Y694948D01*
X664668Y693614D01*
X664668Y692281D01*
X665501Y690948D01*
X667168Y690281D01*
G54D10*
X678001Y699814D02*
X678001Y699281D01*
X677334Y699281D01*
X677334Y699814D01*
X678001Y699814D01*
X678001Y699281D01*
G54D10*
X669668Y703481D02*
X664668Y706814D01*
X678001Y706814D01*
G54D12*
X900449Y544286D02*
X900449Y607786D01*
G54D12*
X929818Y607786D02*
X929818Y544286D01*
G54D10*
X921836Y636791D02*
X921836Y631457D01*
X921003Y631457D01*
X919336Y632124D01*
X914336Y636124D01*
X912670Y636791D01*
X911003Y636791D01*
X909336Y636124D01*
X908503Y634791D01*
X908503Y633457D01*
X909336Y632124D01*
X911003Y631457D01*
G54D10*
X921836Y640457D02*
X908503Y640457D01*
X908503Y643791D01*
X909336Y645124D01*
X911003Y645791D01*
X919336Y645791D01*
X921003Y645124D01*
X921836Y643791D01*
X921836Y640457D01*
G54D10*
X911003Y649457D02*
X909336Y650124D01*
X908503Y651457D01*
X908503Y652791D01*
X909336Y654124D01*
X911003Y654791D01*
X912670Y654791D01*
X914336Y654124D01*
X915170Y652791D01*
X916003Y654124D01*
X917670Y654791D01*
X919336Y654791D01*
X921003Y654124D01*
X921836Y652791D01*
X921836Y651457D01*
X921003Y650124D01*
X919336Y649457D01*
G54D10*
X921836Y658991D02*
X921836Y658457D01*
X921170Y658457D01*
X921170Y658991D01*
X921836Y658991D01*
X921836Y658457D01*
G54D10*
X911003Y662657D02*
X909336Y663324D01*
X908503Y664657D01*
X908503Y665991D01*
X909336Y667324D01*
X911003Y667991D01*
X912670Y667991D01*
X914336Y667324D01*
X915170Y665991D01*
X916003Y667324D01*
X917670Y667991D01*
X919336Y667991D01*
X921003Y667324D01*
X921836Y665991D01*
X921836Y664657D01*
X921003Y663324D01*
X919336Y662657D01*
G54D12*
X806197Y544939D02*
X806197Y608439D01*
G54D12*
X835566Y608439D02*
X835566Y544939D01*
G54D10*
X799010Y532669D02*
X799010Y527336D01*
X798176Y527336D01*
X796510Y528002D01*
X791510Y532002D01*
X789843Y532669D01*
X788176Y532669D01*
X786510Y532002D01*
X785676Y530669D01*
X785676Y529336D01*
X786510Y528002D01*
X788176Y527336D01*
G54D10*
X799010Y536336D02*
X785676Y536336D01*
X785676Y539669D01*
X786510Y541002D01*
X788176Y541669D01*
X796510Y541669D01*
X798176Y541002D01*
X799010Y539669D01*
X799010Y536336D01*
G54D10*
X788176Y545336D02*
X786510Y546002D01*
X785676Y547336D01*
X785676Y548669D01*
X786510Y550002D01*
X788176Y550669D01*
X789843Y550669D01*
X791510Y550002D01*
X792343Y548669D01*
X793176Y550002D01*
X794843Y550669D01*
X796510Y550669D01*
X798176Y550002D01*
X799010Y548669D01*
X799010Y547336D01*
X798176Y546002D01*
X796510Y545336D01*
G54D10*
X799010Y554869D02*
X799010Y554336D01*
X798343Y554336D01*
X798343Y554869D01*
X799010Y554869D01*
X799010Y554336D01*
G54D10*
X790676Y558536D02*
X785676Y561869D01*
X799010Y561869D01*
G54D12*
X883540Y607674D02*
X883540Y544174D01*
G54D12*
X854171Y544174D02*
X854171Y607674D01*
G54D10*
X875486Y638854D02*
X875486Y633520D01*
X874652Y633520D01*
X872986Y634187D01*
X867986Y638187D01*
X866319Y638854D01*
X864652Y638854D01*
X862986Y638187D01*
X862152Y636854D01*
X862152Y635520D01*
X862986Y634187D01*
X864652Y633520D01*
G54D10*
X875486Y642520D02*
X862152Y642520D01*
X862152Y645854D01*
X862986Y647187D01*
X864652Y647854D01*
X872986Y647854D01*
X874652Y647187D01*
X875486Y645854D01*
X875486Y642520D01*
G54D10*
X864652Y651520D02*
X862986Y652187D01*
X862152Y653520D01*
X862152Y654854D01*
X862986Y656187D01*
X864652Y656854D01*
X866319Y656854D01*
X867986Y656187D01*
X868819Y654854D01*
X869652Y656187D01*
X871319Y656854D01*
X872986Y656854D01*
X874652Y656187D01*
X875486Y654854D01*
X875486Y653520D01*
X874652Y652187D01*
X872986Y651520D01*
G54D10*
X875486Y661054D02*
X875486Y660520D01*
X874819Y660520D01*
X874819Y661054D01*
X875486Y661054D01*
X875486Y660520D01*
G54D10*
X875486Y670054D02*
X875486Y664720D01*
X874652Y664720D01*
X872986Y665387D01*
X867986Y669387D01*
X866319Y670054D01*
X864652Y670054D01*
X862986Y669387D01*
X862152Y668054D01*
X862152Y666720D01*
X862986Y665387D01*
X864652Y664720D01*
G54D12*
X624223Y223841D02*
X624223Y287341D01*
G54D12*
X653592Y287341D02*
X653592Y223841D01*
G54D10*
X643230Y179027D02*
X643230Y173694D01*
X642396Y173694D01*
X640730Y174361D01*
X635730Y178361D01*
X634063Y179027D01*
X632396Y179027D01*
X630730Y178361D01*
X629896Y177027D01*
X629896Y175694D01*
X630730Y174361D01*
X632396Y173694D01*
G54D10*
X643230Y182694D02*
X629896Y182694D01*
X629896Y186027D01*
X630730Y187361D01*
X632396Y188027D01*
X640730Y188027D01*
X642396Y187361D01*
X643230Y186027D01*
X643230Y182694D01*
G54D10*
X636563Y195027D02*
X636563Y193694D01*
X635730Y192361D01*
X634063Y191694D01*
X632396Y191694D01*
X630730Y192361D01*
X629896Y193694D01*
X629896Y195027D01*
X630730Y196361D01*
X632396Y197027D01*
X634063Y197027D01*
X635730Y196361D01*
X636563Y195027D01*
X637396Y196361D01*
X639063Y197027D01*
X640730Y197027D01*
X642396Y196361D01*
X643230Y195027D01*
X643230Y193694D01*
X642396Y192361D01*
X640730Y191694D01*
X639063Y191694D01*
X637396Y192361D01*
X636563Y193694D01*
G54D10*
X643230Y201227D02*
X643230Y200694D01*
X642563Y200694D01*
X642563Y201227D01*
X643230Y201227D01*
X643230Y200694D01*
G54D10*
X643230Y210227D02*
X643230Y204894D01*
X642396Y204894D01*
X640730Y205561D01*
X635730Y209561D01*
X634063Y210227D01*
X632396Y210227D01*
X630730Y209561D01*
X629896Y208227D01*
X629896Y206894D01*
X630730Y205561D01*
X632396Y204894D01*
G54D12*
X605729Y286150D02*
X605729Y222650D01*
G54D12*
X576360Y222650D02*
X576360Y286150D01*
G54D10*
X599262Y180010D02*
X599262Y174677D01*
X598428Y174677D01*
X596762Y175344D01*
X591762Y179344D01*
X590095Y180010D01*
X588428Y180010D01*
X586762Y179344D01*
X585928Y178010D01*
X585928Y176677D01*
X586762Y175344D01*
X588428Y174677D01*
G54D10*
X599262Y183677D02*
X585928Y183677D01*
X585928Y187010D01*
X586762Y188344D01*
X588428Y189010D01*
X596762Y189010D01*
X598428Y188344D01*
X599262Y187010D01*
X599262Y183677D01*
G54D10*
X592595Y196010D02*
X592595Y194677D01*
X591762Y193344D01*
X590095Y192677D01*
X588428Y192677D01*
X586762Y193344D01*
X585928Y194677D01*
X585928Y196010D01*
X586762Y197344D01*
X588428Y198010D01*
X590095Y198010D01*
X591762Y197344D01*
X592595Y196010D01*
X593428Y197344D01*
X595095Y198010D01*
X596762Y198010D01*
X598428Y197344D01*
X599262Y196010D01*
X599262Y194677D01*
X598428Y193344D01*
X596762Y192677D01*
X595095Y192677D01*
X593428Y193344D01*
X592595Y194677D01*
G54D10*
X599262Y202210D02*
X599262Y201677D01*
X598595Y201677D01*
X598595Y202210D01*
X599262Y202210D01*
X599262Y201677D01*
G54D10*
X588428Y205877D02*
X586762Y206544D01*
X585928Y207877D01*
X585928Y209210D01*
X586762Y210544D01*
X588428Y211210D01*
X590095Y211210D01*
X591762Y210544D01*
X592595Y209210D01*
X593428Y210544D01*
X595095Y211210D01*
X596762Y211210D01*
X598428Y210544D01*
X599262Y209210D01*
X599262Y207877D01*
X598428Y206544D01*
X596762Y205877D01*
G54D12*
X700979Y286150D02*
X700979Y222650D01*
G54D12*
X671610Y222650D02*
X671610Y286150D01*
G54D10*
X721499Y264148D02*
X721499Y258815D01*
X720666Y258815D01*
X718999Y259481D01*
X713999Y263481D01*
X712332Y264148D01*
X710666Y264148D01*
X708999Y263481D01*
X708166Y262148D01*
X708166Y260815D01*
X708999Y259481D01*
X710666Y258815D01*
G54D10*
X721499Y267815D02*
X708166Y267815D01*
X708166Y271148D01*
X708999Y272481D01*
X710666Y273148D01*
X718999Y273148D01*
X720666Y272481D01*
X721499Y271148D01*
X721499Y267815D01*
G54D10*
X714832Y280148D02*
X714832Y278815D01*
X713999Y277481D01*
X712332Y276815D01*
X710666Y276815D01*
X708999Y277481D01*
X708166Y278815D01*
X708166Y280148D01*
X708999Y281481D01*
X710666Y282148D01*
X712332Y282148D01*
X713999Y281481D01*
X714832Y280148D01*
X715666Y281481D01*
X717332Y282148D01*
X718999Y282148D01*
X720666Y281481D01*
X721499Y280148D01*
X721499Y278815D01*
X720666Y277481D01*
X718999Y276815D01*
X717332Y276815D01*
X715666Y277481D01*
X714832Y278815D01*
G54D10*
X721499Y286348D02*
X721499Y285815D01*
X720832Y285815D01*
X720832Y286348D01*
X721499Y286348D01*
X721499Y285815D01*
G54D10*
X713166Y290015D02*
X708166Y293348D01*
X721499Y293348D01*
G54D12*
X784280Y205412D02*
X720780Y205412D01*
G54D12*
X720780Y234781D02*
X784280Y234781D01*
G54D10*
X721797Y240454D02*
X716464Y240454D01*
X716464Y241288D01*
X717131Y242954D01*
X721131Y247954D01*
X721797Y249621D01*
X721797Y251288D01*
X721131Y252954D01*
X719797Y253788D01*
X718464Y253788D01*
X717131Y252954D01*
X716464Y251288D01*
G54D10*
X725464Y240454D02*
X725464Y253788D01*
X728797Y253788D01*
X730131Y252954D01*
X730797Y251288D01*
X730797Y242954D01*
X730131Y241288D01*
X728797Y240454D01*
X725464Y240454D01*
G54D10*
X734464Y248788D02*
X737797Y253788D01*
X737797Y240454D01*
G54D10*
X746797Y251288D02*
X746797Y242954D01*
X746131Y241288D01*
X744797Y240454D01*
X743464Y240454D01*
X742131Y241288D01*
X741464Y242954D01*
X741464Y251288D01*
X742131Y252954D01*
X743464Y253788D01*
X744797Y253788D01*
X746131Y252954D01*
X746797Y251288D01*
G54D10*
X750997Y240454D02*
X750464Y240454D01*
X750464Y241121D01*
X750997Y241121D01*
X750997Y240454D01*
X750464Y240454D01*
G54D10*
X754664Y248788D02*
X757997Y253788D01*
X757997Y240454D01*
G54D12*
X784280Y110162D02*
X720780Y110162D01*
G54D12*
X720780Y139531D02*
X784280Y139531D01*
G54D10*
X670997Y115042D02*
X665664Y115042D01*
X665664Y115875D01*
X666331Y117542D01*
X670331Y122542D01*
X670997Y124209D01*
X670997Y125875D01*
X670331Y127542D01*
X668997Y128375D01*
X667664Y128375D01*
X666331Y127542D01*
X665664Y125875D01*
G54D10*
X674664Y115042D02*
X674664Y128375D01*
X677997Y128375D01*
X679331Y127542D01*
X679997Y125875D01*
X679997Y117542D01*
X679331Y115875D01*
X677997Y115042D01*
X674664Y115042D01*
G54D10*
X683664Y123375D02*
X686997Y128375D01*
X686997Y115042D01*
G54D10*
X695997Y125875D02*
X695997Y117542D01*
X695331Y115875D01*
X693997Y115042D01*
X692664Y115042D01*
X691331Y115875D01*
X690664Y117542D01*
X690664Y125875D01*
X691331Y127542D01*
X692664Y128375D01*
X693997Y128375D01*
X695331Y127542D01*
X695997Y125875D01*
G54D10*
X700197Y115042D02*
X699664Y115042D01*
X699664Y115709D01*
X700197Y115709D01*
X700197Y115042D01*
X699664Y115042D01*
G54D10*
X703864Y125875D02*
X704531Y127542D01*
X705864Y128375D01*
X707197Y128375D01*
X708531Y127542D01*
X709197Y125875D01*
X709197Y124209D01*
X708531Y122542D01*
X707197Y121709D01*
X708531Y120875D01*
X709197Y119209D01*
X709197Y117542D01*
X708531Y115875D01*
X707197Y115042D01*
X705864Y115042D01*
X704531Y115875D01*
X703864Y117542D01*
G54D12*
X722028Y186531D02*
X785528Y186531D01*
G54D12*
X785528Y157163D02*
X722028Y157163D01*
G54D10*
X669145Y165394D02*
X663811Y165394D01*
X663811Y166227D01*
X664478Y167894D01*
X668478Y172894D01*
X669145Y174561D01*
X669145Y176227D01*
X668478Y177894D01*
X667145Y178727D01*
X665811Y178727D01*
X664478Y177894D01*
X663811Y176227D01*
G54D10*
X672811Y165394D02*
X672811Y178727D01*
X676145Y178727D01*
X677478Y177894D01*
X678145Y176227D01*
X678145Y167894D01*
X677478Y166227D01*
X676145Y165394D01*
X672811Y165394D01*
G54D10*
X681811Y173727D02*
X685145Y178727D01*
X685145Y165394D01*
G54D10*
X694145Y176227D02*
X694145Y167894D01*
X693478Y166227D01*
X692145Y165394D01*
X690811Y165394D01*
X689478Y166227D01*
X688811Y167894D01*
X688811Y176227D01*
X689478Y177894D01*
X690811Y178727D01*
X692145Y178727D01*
X693478Y177894D01*
X694145Y176227D01*
G54D10*
X698345Y165394D02*
X697811Y165394D01*
X697811Y166061D01*
X698345Y166061D01*
X698345Y165394D01*
X697811Y165394D01*
G54D10*
X707345Y165394D02*
X702011Y165394D01*
X702011Y166227D01*
X702678Y167894D01*
X706678Y172894D01*
X707345Y174561D01*
X707345Y176227D01*
X706678Y177894D01*
X705345Y178727D01*
X704011Y178727D01*
X702678Y177894D01*
X702011Y176227D01*
G54D12*
X873180Y205412D02*
X809680Y205412D01*
G54D12*
X809680Y234781D02*
X873180Y234781D01*
G54D10*
X894835Y215054D02*
X889501Y215054D01*
X889501Y215888D01*
X890168Y217554D01*
X894168Y222554D01*
X894835Y224221D01*
X894835Y225888D01*
X894168Y227554D01*
X892835Y228388D01*
X891501Y228388D01*
X890168Y227554D01*
X889501Y225888D01*
G54D10*
X898501Y215054D02*
X898501Y228388D01*
X901835Y228388D01*
X903168Y227554D01*
X903835Y225888D01*
X903835Y217554D01*
X903168Y215888D01*
X901835Y215054D01*
X898501Y215054D01*
G54D10*
X907501Y217554D02*
X908168Y215888D01*
X909501Y215054D01*
X910835Y215054D01*
X912168Y215888D01*
X912835Y217554D01*
X912835Y221721D01*
X912835Y222554D01*
X910835Y220888D01*
X909501Y220888D01*
X908168Y221721D01*
X907501Y223388D01*
X907501Y225888D01*
X908168Y227554D01*
X909501Y228388D01*
X910835Y228388D01*
X912168Y227554D01*
X912835Y225888D01*
X912835Y221721D01*
G54D10*
X917035Y215054D02*
X916501Y215054D01*
X916501Y215721D01*
X917035Y215721D01*
X917035Y215054D01*
X916501Y215054D01*
G54D10*
X920701Y223388D02*
X924035Y228388D01*
X924035Y215054D01*
G54D12*
X810872Y186918D02*
X874372Y186918D01*
G54D12*
X874372Y157549D02*
X810872Y157549D01*
G54D10*
X901413Y158720D02*
X901413Y153386D01*
X900580Y153386D01*
X898913Y154053D01*
X893913Y158053D01*
X892247Y158720D01*
X890580Y158720D01*
X888913Y158053D01*
X888080Y156720D01*
X888080Y155386D01*
X888913Y154053D01*
X890580Y153386D01*
G54D10*
X901413Y162386D02*
X888080Y162386D01*
X888080Y165720D01*
X888913Y167053D01*
X890580Y167720D01*
X898913Y167720D01*
X900580Y167053D01*
X901413Y165720D01*
X901413Y162386D01*
G54D10*
X898913Y171386D02*
X900580Y172053D01*
X901413Y173386D01*
X901413Y174720D01*
X900580Y176053D01*
X898913Y176720D01*
X894747Y176720D01*
X893913Y176720D01*
X895580Y174720D01*
X895580Y173386D01*
X894747Y172053D01*
X893080Y171386D01*
X890580Y171386D01*
X888913Y172053D01*
X888080Y173386D01*
X888080Y174720D01*
X888913Y176053D01*
X890580Y176720D01*
X894747Y176720D01*
G54D10*
X901413Y180920D02*
X901413Y180386D01*
X900747Y180386D01*
X900747Y180920D01*
X901413Y180920D01*
X901413Y180386D01*
G54D10*
X901413Y189920D02*
X901413Y184586D01*
X900580Y184586D01*
X898913Y185253D01*
X893913Y189253D01*
X892247Y189920D01*
X890580Y189920D01*
X888913Y189253D01*
X888080Y187920D01*
X888080Y186586D01*
X888913Y185253D01*
X890580Y184586D01*
G54D12*
X873180Y110162D02*
X809680Y110162D01*
G54D12*
X809680Y139531D02*
X873180Y139531D01*
G54D10*
X824985Y86467D02*
X819651Y86467D01*
X819651Y87300D01*
X820318Y88967D01*
X824318Y93967D01*
X824985Y95634D01*
X824985Y97300D01*
X824318Y98967D01*
X822985Y99800D01*
X821651Y99800D01*
X820318Y98967D01*
X819651Y97300D01*
G54D10*
X828651Y86467D02*
X828651Y99800D01*
X831985Y99800D01*
X833318Y98967D01*
X833985Y97300D01*
X833985Y88967D01*
X833318Y87300D01*
X831985Y86467D01*
X828651Y86467D01*
G54D10*
X837651Y88967D02*
X838318Y87300D01*
X839651Y86467D01*
X840985Y86467D01*
X842318Y87300D01*
X842985Y88967D01*
X842985Y93134D01*
X842985Y93967D01*
X840985Y92300D01*
X839651Y92300D01*
X838318Y93134D01*
X837651Y94800D01*
X837651Y97300D01*
X838318Y98967D01*
X839651Y99800D01*
X840985Y99800D01*
X842318Y98967D01*
X842985Y97300D01*
X842985Y93134D01*
G54D10*
X847185Y86467D02*
X846651Y86467D01*
X846651Y87134D01*
X847185Y87134D01*
X847185Y86467D01*
X846651Y86467D01*
G54D10*
X850851Y97300D02*
X851518Y98967D01*
X852851Y99800D01*
X854185Y99800D01*
X855518Y98967D01*
X856185Y97300D01*
X856185Y95634D01*
X855518Y93967D01*
X854185Y93134D01*
X855518Y92300D01*
X856185Y90634D01*
X856185Y88967D01*
X855518Y87300D01*
X854185Y86467D01*
X852851Y86467D01*
X851518Y87300D01*
X850851Y88967D01*
G54D12*
X715004Y504718D02*
X670103Y549619D01*
G54D12*
X690869Y570386D02*
X735771Y525485D01*
G54D10*
X726078Y546310D02*
X722306Y550081D01*
X722896Y550671D01*
X724546Y551378D01*
X730910Y552085D01*
X732559Y552792D01*
X733738Y553971D01*
X734445Y555620D01*
X734092Y557152D01*
X733149Y558095D01*
X731617Y558449D01*
X729967Y557742D01*
G54D10*
X728670Y543717D02*
X738098Y553146D01*
X740455Y550789D01*
X740809Y549256D01*
X740102Y547607D01*
X734209Y541714D01*
X732559Y541007D01*
X731027Y541360D01*
X728670Y543717D01*
G54D10*
X737863Y534525D02*
X747291Y543953D01*
X738570Y540889D01*
X737391Y539710D01*
X741163Y535939D01*
G54D10*
X741775Y530612D02*
X741398Y530990D01*
X741870Y531461D01*
X742247Y531084D01*
X741775Y530612D01*
X741398Y530990D01*
G54D10*
X750261Y533912D02*
X756153Y535091D01*
X746725Y525663D01*
G54D12*
X647824Y437285D02*
X602923Y482186D01*
G54D12*
X623690Y502953D02*
X668591Y458052D01*
G54D10*
X575554Y531264D02*
X571783Y535035D01*
X572372Y535625D01*
X574022Y536332D01*
X580386Y537039D01*
X582036Y537746D01*
X583214Y538925D01*
X583922Y540574D01*
X583568Y542107D01*
X582625Y543049D01*
X581093Y543403D01*
X579443Y542696D01*
G54D10*
X578147Y528672D02*
X587575Y538100D01*
X589932Y535743D01*
X590286Y534210D01*
X589578Y532561D01*
X583686Y526668D01*
X582036Y525961D01*
X580504Y526314D01*
X578147Y528672D01*
G54D10*
X587339Y519479D02*
X596767Y528907D01*
X588046Y525843D01*
X586868Y524665D01*
X590639Y520893D01*
G54D10*
X591252Y515566D02*
X590875Y515944D01*
X591346Y516415D01*
X591723Y516038D01*
X591252Y515566D01*
X590875Y515944D01*
G54D10*
X601505Y520634D02*
X603155Y521341D01*
X604687Y520988D01*
X605630Y520045D01*
X605983Y518513D01*
X605276Y516863D01*
X604098Y515684D01*
X602448Y514977D01*
X600916Y515331D01*
X601269Y513799D01*
X600562Y512149D01*
X599384Y510970D01*
X597734Y510263D01*
X596202Y510617D01*
X595259Y511560D01*
X594905Y513092D01*
X595612Y514742D01*
G54D12*
X658544Y535361D02*
X703445Y490459D01*
G54D12*
X682678Y469693D02*
X637777Y514594D01*
G54D10*
X717214Y470045D02*
X711881Y470045D01*
X711881Y470878D01*
X712547Y472545D01*
X716547Y477545D01*
X717214Y479212D01*
X717214Y480878D01*
X716547Y482545D01*
X715214Y483378D01*
X713881Y483378D01*
X712547Y482545D01*
X711881Y480878D01*
G54D10*
X720881Y470045D02*
X720881Y483378D01*
X724214Y483378D01*
X725547Y482545D01*
X726214Y480878D01*
X726214Y472545D01*
X725547Y470878D01*
X724214Y470045D01*
X720881Y470045D01*
G54D10*
X733881Y470045D02*
X733881Y483378D01*
X729881Y475045D01*
X729881Y473378D01*
X735214Y473378D01*
G54D10*
X739414Y470045D02*
X738881Y470045D01*
X738881Y470712D01*
X739414Y470712D01*
X739414Y470045D01*
X738881Y470045D01*
G54D10*
X748414Y470045D02*
X743081Y470045D01*
X743081Y470878D01*
X743747Y472545D01*
X747747Y477545D01*
X748414Y479212D01*
X748414Y480878D01*
X747747Y482545D01*
X746414Y483378D01*
X745081Y483378D01*
X743747Y482545D01*
X743081Y480878D01*
G54D12*
X877101Y323662D02*
X832200Y368563D01*
G54D12*
X852967Y389330D02*
X897868Y344429D01*
G54D10*
X895319Y315247D02*
X891547Y319019D01*
X892137Y319608D01*
X893786Y320315D01*
X900150Y321022D01*
X901800Y321729D01*
X902979Y322908D01*
X903686Y324558D01*
X903332Y326090D01*
X902390Y327033D01*
X900858Y327386D01*
X899208Y326679D01*
G54D10*
X897911Y312655D02*
X907339Y322083D01*
X909696Y319726D01*
X910050Y318194D01*
X909343Y316544D01*
X903450Y310651D01*
X901800Y309944D01*
X900268Y310298D01*
X897911Y312655D01*
G54D10*
X913703Y315719D02*
X917475Y311948D01*
X915825Y311240D01*
X913114Y310416D01*
X909814Y309001D01*
X907575Y307705D01*
X905218Y305348D01*
G54D10*
X911016Y299550D02*
X910639Y299927D01*
X911111Y300398D01*
X911488Y300021D01*
X911016Y299550D01*
X910639Y299927D01*
G54D10*
X919502Y302850D02*
X925394Y304028D01*
X915966Y294600D01*
G54D12*
X809749Y256310D02*
X764848Y301211D01*
G54D12*
X785614Y321978D02*
X830516Y277077D01*
G54D10*
X841699Y253528D02*
X836366Y253528D01*
X836366Y254361D01*
X837033Y256028D01*
X841033Y261028D01*
X841699Y262694D01*
X841699Y264361D01*
X841033Y266028D01*
X839699Y266861D01*
X838366Y266861D01*
X837033Y266028D01*
X836366Y264361D01*
G54D10*
X845366Y253528D02*
X845366Y266861D01*
X848699Y266861D01*
X850033Y266028D01*
X850699Y264361D01*
X850699Y256028D01*
X850033Y254361D01*
X848699Y253528D01*
X845366Y253528D01*
G54D10*
X854366Y266861D02*
X859699Y266861D01*
X859033Y265194D01*
X857699Y262694D01*
X856366Y259361D01*
X855699Y256861D01*
X855699Y253528D01*
G54D10*
X863899Y253528D02*
X863366Y253528D01*
X863366Y254194D01*
X863899Y254194D01*
X863899Y253528D01*
X863366Y253528D01*
G54D10*
X867566Y264361D02*
X868233Y266028D01*
X869566Y266861D01*
X870899Y266861D01*
X872233Y266028D01*
X872899Y264361D01*
X872899Y262694D01*
X872233Y261028D01*
X870899Y260194D01*
X872233Y259361D01*
X872899Y257694D01*
X872899Y256028D01*
X872233Y254361D01*
X870899Y253528D01*
X869566Y253528D01*
X868233Y254361D01*
X867566Y256028D01*
G54D12*
X819303Y354988D02*
X864205Y310086D01*
G54D12*
X843438Y289320D02*
X798537Y334221D01*
G54D10*
X869242Y281467D02*
X863909Y281467D01*
X863909Y282300D01*
X864576Y283967D01*
X868576Y288967D01*
X869242Y290634D01*
X869242Y292300D01*
X868576Y293967D01*
X867242Y294800D01*
X865909Y294800D01*
X864576Y293967D01*
X863909Y292300D01*
G54D10*
X872909Y281467D02*
X872909Y294800D01*
X876242Y294800D01*
X877576Y293967D01*
X878242Y292300D01*
X878242Y283967D01*
X877576Y282300D01*
X876242Y281467D01*
X872909Y281467D01*
G54D10*
X881909Y294800D02*
X887242Y294800D01*
X886576Y293134D01*
X885242Y290634D01*
X883909Y287300D01*
X883242Y284800D01*
X883242Y281467D01*
G54D10*
X891442Y281467D02*
X890909Y281467D01*
X890909Y282134D01*
X891442Y282134D01*
X891442Y281467D01*
X890909Y281467D01*
G54D10*
X900442Y281467D02*
X895109Y281467D01*
X895109Y282300D01*
X895776Y283967D01*
X899776Y288967D01*
X900442Y290634D01*
X900442Y292300D01*
X899776Y293967D01*
X898442Y294800D01*
X897109Y294800D01*
X895776Y293967D01*
X895109Y292300D01*
G54D12*
X632210Y389959D02*
X677112Y434861D01*
G54D12*
X697878Y414094D02*
X652977Y369192D01*
G54D10*
X700607Y430740D02*
X695274Y430740D01*
X695274Y431573D01*
X695940Y433240D01*
X699940Y438240D01*
X700607Y439907D01*
X700607Y441573D01*
X699940Y443240D01*
X698607Y444073D01*
X697274Y444073D01*
X695940Y443240D01*
X695274Y441573D01*
G54D10*
X704274Y430740D02*
X704274Y444073D01*
X707607Y444073D01*
X708940Y443240D01*
X709607Y441573D01*
X709607Y433240D01*
X708940Y431573D01*
X707607Y430740D01*
X704274Y430740D01*
G54D10*
X718607Y441573D02*
X717940Y443240D01*
X716607Y444073D01*
X715274Y444073D01*
X713940Y443240D01*
X713274Y441573D01*
X713274Y437407D01*
X713274Y436573D01*
X715274Y438240D01*
X716607Y438240D01*
X717940Y437407D01*
X718607Y435740D01*
X718607Y433240D01*
X717940Y431573D01*
X716607Y430740D01*
X715274Y430740D01*
X713940Y431573D01*
X713274Y433240D01*
X713274Y437407D01*
G54D10*
X722807Y430740D02*
X722274Y430740D01*
X722274Y431407D01*
X722807Y431407D01*
X722807Y430740D01*
X722274Y430740D01*
G54D10*
X726474Y441573D02*
X727140Y443240D01*
X728474Y444073D01*
X729807Y444073D01*
X731140Y443240D01*
X731807Y441573D01*
X731807Y439907D01*
X731140Y438240D01*
X729807Y437407D01*
X731140Y436573D01*
X731807Y434907D01*
X731807Y433240D01*
X731140Y431573D01*
X729807Y430740D01*
X728474Y430740D01*
X727140Y431573D01*
X726474Y433240D01*
G54D12*
X699618Y322664D02*
X744520Y367565D01*
G54D12*
X765286Y346798D02*
X720385Y301897D01*
G54D10*
X768782Y365213D02*
X763449Y365213D01*
X763449Y366046D01*
X764116Y367713D01*
X768116Y372713D01*
X768782Y374379D01*
X768782Y376046D01*
X768116Y377713D01*
X766782Y378546D01*
X765449Y378546D01*
X764116Y377713D01*
X763449Y376046D01*
G54D10*
X772449Y365213D02*
X772449Y378546D01*
X775782Y378546D01*
X777116Y377713D01*
X777782Y376046D01*
X777782Y367713D01*
X777116Y366046D01*
X775782Y365213D01*
X772449Y365213D01*
G54D10*
X786782Y376046D02*
X786116Y377713D01*
X784782Y378546D01*
X783449Y378546D01*
X782116Y377713D01*
X781449Y376046D01*
X781449Y371879D01*
X781449Y371046D01*
X783449Y372713D01*
X784782Y372713D01*
X786116Y371879D01*
X786782Y370213D01*
X786782Y367713D01*
X786116Y366046D01*
X784782Y365213D01*
X783449Y365213D01*
X782116Y366046D01*
X781449Y367713D01*
X781449Y371879D01*
G54D10*
X790982Y365213D02*
X790449Y365213D01*
X790449Y365879D01*
X790982Y365879D01*
X790982Y365213D01*
X790449Y365213D01*
G54D10*
X794649Y373546D02*
X797982Y378546D01*
X797982Y365213D01*
G54D12*
X729673Y380017D02*
X684772Y335116D01*
G54D12*
X664005Y355883D02*
X708906Y400784D01*
G54D10*
X730213Y399816D02*
X724880Y399816D01*
X724880Y400649D01*
X725546Y402316D01*
X729546Y407316D01*
X730213Y408983D01*
X730213Y410649D01*
X729546Y412316D01*
X728213Y413149D01*
X726880Y413149D01*
X725546Y412316D01*
X724880Y410649D01*
G54D10*
X733880Y399816D02*
X733880Y413149D01*
X737213Y413149D01*
X738546Y412316D01*
X739213Y410649D01*
X739213Y402316D01*
X738546Y400649D01*
X737213Y399816D01*
X733880Y399816D01*
G54D10*
X748213Y410649D02*
X747546Y412316D01*
X746213Y413149D01*
X744880Y413149D01*
X743546Y412316D01*
X742880Y410649D01*
X742880Y406483D01*
X742880Y405649D01*
X744880Y407316D01*
X746213Y407316D01*
X747546Y406483D01*
X748213Y404816D01*
X748213Y402316D01*
X747546Y400649D01*
X746213Y399816D01*
X744880Y399816D01*
X743546Y400649D01*
X742880Y402316D01*
X742880Y406483D01*
G54D10*
X752413Y399816D02*
X751880Y399816D01*
X751880Y400483D01*
X752413Y400483D01*
X752413Y399816D01*
X751880Y399816D01*
G54D10*
X761413Y399816D02*
X756080Y399816D01*
X756080Y400649D01*
X756746Y402316D01*
X760746Y407316D01*
X761413Y408983D01*
X761413Y410649D01*
X760746Y412316D01*
X759413Y413149D01*
X758080Y413149D01*
X756746Y412316D01*
X756080Y410649D01*
G54D12*
X797336Y450143D02*
X842238Y495044D01*
G54D12*
X863004Y474278D02*
X818103Y429376D01*
G54D10*
X870933Y492699D02*
X867162Y488927D01*
X866572Y489517D01*
X865865Y491167D01*
X865158Y497531D01*
X864451Y499180D01*
X863272Y500359D01*
X861623Y501066D01*
X860090Y500712D01*
X859148Y499770D01*
X858794Y498238D01*
X859501Y496588D01*
G54D10*
X873526Y495291D02*
X864097Y504719D01*
X866454Y507076D01*
X867987Y507430D01*
X869636Y506723D01*
X875529Y500830D01*
X876236Y499180D01*
X875883Y497648D01*
X873526Y495291D01*
G54D10*
X874233Y514855D02*
X870461Y511083D01*
X874586Y506959D01*
X875058Y507430D01*
X875411Y508962D01*
X876354Y509905D01*
X877886Y510258D01*
X879536Y509551D01*
X881893Y507194D01*
X882600Y505544D01*
X882246Y504012D01*
X881304Y503070D01*
X879772Y502716D01*
X878122Y503423D01*
G54D10*
X886631Y508396D02*
X886253Y508019D01*
X885782Y508491D01*
X886159Y508868D01*
X886631Y508396D01*
X886253Y508019D01*
G54D10*
X892994Y514760D02*
X889223Y510989D01*
X888634Y511578D01*
X887927Y513228D01*
X887220Y519592D01*
X886513Y521242D01*
X885334Y522421D01*
X883684Y523128D01*
X882152Y522774D01*
X881209Y521831D01*
X880856Y520299D01*
X881563Y518649D01*
G54D12*
X828185Y508290D02*
X783284Y463389D01*
G54D12*
X762517Y484156D02*
X807418Y529057D01*
G54D10*
X761987Y495552D02*
X758216Y491780D01*
X757626Y492370D01*
X756919Y494020D01*
X756212Y500384D01*
X755505Y502033D01*
X754326Y503212D01*
X752676Y503919D01*
X751144Y503566D01*
X750202Y502623D01*
X749848Y501091D01*
X750555Y499441D01*
G54D10*
X764579Y498144D02*
X755151Y507572D01*
X757508Y509930D01*
X759040Y510283D01*
X760690Y509576D01*
X766583Y503683D01*
X767290Y502034D01*
X766936Y500501D01*
X764579Y498144D01*
G54D10*
X765287Y517708D02*
X761515Y513936D01*
X765640Y509812D01*
X766112Y510283D01*
X766465Y511815D01*
X767408Y512758D01*
X768940Y513112D01*
X770590Y512404D01*
X772947Y510047D01*
X773654Y508397D01*
X773300Y506865D01*
X772358Y505923D01*
X770826Y505569D01*
X769176Y506276D01*
G54D10*
X777684Y511249D02*
X777307Y510872D01*
X776836Y511344D01*
X777213Y511721D01*
X777684Y511249D01*
X777307Y510872D01*
G54D10*
X772617Y521502D02*
X771910Y523152D01*
X772263Y524684D01*
X773206Y525627D01*
X774738Y525981D01*
X776388Y525274D01*
X777567Y524095D01*
X778274Y522445D01*
X777920Y520913D01*
X779452Y521267D01*
X781102Y520560D01*
X782281Y519381D01*
X782988Y517731D01*
X782634Y516199D01*
X781691Y515256D01*
X780159Y514903D01*
X778509Y515610D01*
G54D12*
X895356Y440161D02*
X850455Y395259D01*
G54D12*
X829688Y416026D02*
X874589Y460927D01*
G54D10*
X891864Y405991D02*
X888093Y402219D01*
X887504Y402809D01*
X886796Y404459D01*
X886089Y410823D01*
X885382Y412472D01*
X884204Y413651D01*
X882554Y414358D01*
X881022Y414004D01*
X880079Y413062D01*
X879725Y411530D01*
X880433Y409880D01*
G54D10*
X894457Y408583D02*
X885029Y418011D01*
X887386Y420368D01*
X888918Y420722D01*
X890568Y420015D01*
X896460Y414122D01*
X897167Y412472D01*
X896814Y410940D01*
X894457Y408583D01*
G54D10*
X895164Y428147D02*
X891393Y424375D01*
X895518Y420251D01*
X895989Y420722D01*
X896342Y422254D01*
X897285Y423197D01*
X898817Y423550D01*
X900467Y422843D01*
X902824Y420486D01*
X903531Y418836D01*
X903178Y417304D01*
X902235Y416362D01*
X900703Y416008D01*
X899053Y416715D01*
G54D10*
X907562Y421688D02*
X907185Y421311D01*
X906713Y421783D01*
X907090Y422160D01*
X907562Y421688D01*
X907185Y421311D01*
G54D10*
X904262Y430174D02*
X903084Y436066D01*
X912512Y426638D01*
G54D13*
X433972Y659200D02*
X433972Y621900D01*
G54D13*
X455972Y659200D02*
X455972Y621900D01*
G54D10*
X466434Y632605D02*
X461434Y635939D01*
X474767Y635939D01*
G54D10*
X468100Y642272D02*
X469767Y644272D01*
X471434Y644939D01*
X474767Y644939D01*
G54D10*
X474767Y639605D02*
X461434Y639605D01*
X461434Y642939D01*
X462267Y644272D01*
X463934Y644939D01*
X465600Y644939D01*
X467267Y644272D01*
X468100Y642939D01*
X468100Y639605D01*
G54D10*
X463934Y648605D02*
X462267Y649272D01*
X461434Y650605D01*
X461434Y651939D01*
X462267Y653272D01*
X463934Y653939D01*
X465600Y653939D01*
X467267Y653272D01*
X468100Y651939D01*
X468934Y653272D01*
X470600Y653939D01*
X472267Y653939D01*
X473934Y653272D01*
X474767Y651939D01*
X474767Y650605D01*
X473934Y649272D01*
X472267Y648605D01*
G54D13*
X941972Y660788D02*
X941972Y623488D01*
G54D13*
X963972Y660788D02*
X963972Y623488D01*
G54D10*
X982767Y639526D02*
X982767Y634193D01*
X981934Y634193D01*
X980267Y634860D01*
X975267Y638860D01*
X973600Y639526D01*
X971934Y639526D01*
X970267Y638860D01*
X969434Y637526D01*
X969434Y636193D01*
X970267Y634860D01*
X971934Y634193D01*
G54D10*
X976100Y645860D02*
X977767Y647860D01*
X979434Y648526D01*
X982767Y648526D01*
G54D10*
X982767Y643193D02*
X969434Y643193D01*
X969434Y646526D01*
X970267Y647860D01*
X971934Y648526D01*
X973600Y648526D01*
X975267Y647860D01*
X976100Y646526D01*
X976100Y643193D01*
G54D10*
X971934Y652193D02*
X970267Y652860D01*
X969434Y654193D01*
X969434Y655526D01*
X970267Y656860D01*
X971934Y657526D01*
X973600Y657526D01*
X975267Y656860D01*
X976100Y655526D01*
X976934Y656860D01*
X978600Y657526D01*
X980267Y657526D01*
X981934Y656860D01*
X982767Y655526D01*
X982767Y654193D01*
X981934Y652860D01*
X980267Y652193D01*
G54D13*
X910296Y170385D02*
X910296Y133085D01*
G54D13*
X932296Y170385D02*
X932296Y133085D01*
G54D10*
X955741Y137598D02*
X955741Y132265D01*
X954908Y132265D01*
X953241Y132931D01*
X948241Y136931D01*
X946575Y137598D01*
X944908Y137598D01*
X943241Y136931D01*
X942408Y135598D01*
X942408Y134265D01*
X943241Y132931D01*
X944908Y132265D01*
G54D10*
X949075Y143931D02*
X950741Y145931D01*
X952408Y146598D01*
X955741Y146598D01*
G54D10*
X955741Y141265D02*
X942408Y141265D01*
X942408Y144598D01*
X943241Y145931D01*
X944908Y146598D01*
X946575Y146598D01*
X948241Y145931D01*
X949075Y144598D01*
X949075Y141265D01*
G54D10*
X953241Y150265D02*
X954908Y150931D01*
X955741Y152265D01*
X955741Y153598D01*
X954908Y154931D01*
X953241Y155598D01*
X949075Y155598D01*
X948241Y155598D01*
X949908Y153598D01*
X949908Y152265D01*
X949075Y150931D01*
X947408Y150265D01*
X944908Y150265D01*
X943241Y150931D01*
X942408Y152265D01*
X942408Y153598D01*
X943241Y154931D01*
X944908Y155598D01*
X949075Y155598D01*
G54D14*
G75*
G01X106868Y63534D02*
G03X106868Y63534I-38134J0D01*
G01*
G54D14*
G75*
G01X972056Y65122D02*
G03X972056Y65122I-38134J0D01*
G01*
G54D14*
G75*
G01X971584Y774700D02*
G03X971584Y774700I-38134J0D01*
G01*
G54D14*
G75*
G01X106397Y776288D02*
G03X106397Y776288I-38134J0D01*
G01*
G54D14*
G75*
G01X524035Y809659D02*
G03X524035Y809659I-23500J0D01*
G01*
G54D14*
G75*
G01X524034Y31784D02*
G03X524034Y31784I-23500J0D01*
G01*
M02*
