; Drill file
; Format: 2.4 (00.0000)
M48
INCH
T01C0.0157
T02C0.0197
T03C0.0236
T04C0.0315
T05C0.1181
T06C0.122
%
G05
G90
T01
X016230Y003600
X016230Y005180
X016810Y007100
X014900Y008070
X016810Y010090
X016570Y011130
X014900Y011070
X019560Y011130
X021030Y005180
X021030Y003610
X020380Y028500
X023370Y028500
X011740Y028500
X011740Y029750
X008750Y029750
X008750Y028500
T02
X018690Y005940
X018690Y006940
X020500Y009500
X021000Y010000
X021500Y009500
X011520Y016760
X011520Y017880
T03
X006190Y001690
X006230Y004480
X007530Y007120
X010530Y007120
X013810Y007060
X021310Y019560
X022120Y026500
X016310Y025310
X006690Y028940
X001060Y026690
X001290Y019540
X028180Y030340
X031930Y030340
X031860Y023510
X036940Y019440
X031880Y013500
X032750Y008250
X032750Y007250
X032750Y006250
X032750Y005250
X033940Y002310
T04
X004120Y005370
X004120Y006370
X004120Y008750
X004120Y009750
X004120Y010750
X001320Y012730
X001320Y013730
X001320Y014730
X001320Y015730
X001320Y016730
X003190Y019700
X003190Y020700
X003190Y021700
X003190Y022700
X003190Y023700
X003190Y024700
X003190Y025700
X003190Y026700
X009940Y026700
X009940Y025700
X009940Y024700
X009940Y023700
X009940Y022700
X009940Y021700
X009940Y020700
X009940Y019700
X013100Y010720
X013100Y009720
X013100Y008720
X013110Y005480
X013110Y004480
X013110Y003480
X021320Y012730
X021320Y013730
X021320Y014730
X021320Y015730
X021320Y016730
X024190Y016510
X024190Y015510
X024190Y014510
X024190Y013510
X024190Y012510
X024190Y017510
X024190Y018510
X024190Y019510
X024190Y020510
X024190Y021510
X024190Y022510
X024190Y023510
X024190Y024510
X024190Y025510
X024190Y026510
X027290Y029060
X029060Y029060
X031040Y029060
X032810Y029060
X033870Y027120
X034870Y027120
X035870Y027120
X036870Y027120
X032810Y031620
X031040Y031620
X029060Y031620
X027290Y031620
X030190Y026510
X030190Y025510
X030190Y024510
X030190Y023510
X030190Y022510
X030190Y021510
X030190Y020510
X030190Y019510
X030190Y018510
X030190Y017510
X030190Y016510
X030190Y015510
X030190Y014510
X030190Y013510
X030190Y012510
X033870Y010750
X034870Y010750
X035870Y010750
X036870Y010750
X019560Y021250
X019560Y022250
X019560Y023250
X019560Y024250
X019560Y025250
T05
X002710Y002380
X002690Y030440
T06
X036770Y002440
X036750Y030370
M30
