%FSLAX34Y34*%
%MOMM*%
%LNSOLDERMASK_BOTTOM*%
G71*
G01*
%ADD10C, 2.100*%
%ADD11C, 2.100*%
%ADD12C, 1.900*%
%ADD13C, 2.200*%
%ADD14C, 2.300*%
%ADD15C, 2.400*%
%ADD16C, 1.800*%
%ADD17C, 2.300*%
%ADD18C, 1.600*%
%ADD19C, 2.400*%
%ADD20C, 0.656*%
%ADD21C, 1.900*%
%ADD22C, 6.400*%
%ADD23C, 6.400*%
%ADD24C, 2.400*%
%LPD*%
X252412Y678200D02*
G54D10*
D03*
X252412Y652800D02*
G54D10*
D03*
X252412Y627400D02*
G54D10*
D03*
X252412Y602000D02*
G54D10*
D03*
X252412Y576600D02*
G54D10*
D03*
X252412Y551200D02*
G54D10*
D03*
X252412Y525800D02*
G54D10*
D03*
X252412Y500400D02*
G54D10*
D03*
X80962Y678200D02*
G54D11*
D03*
X80962Y678200D02*
G54D10*
D03*
X80962Y652800D02*
G54D10*
D03*
X80962Y627400D02*
G54D10*
D03*
X80962Y602000D02*
G54D10*
D03*
X80962Y576600D02*
G54D10*
D03*
X80962Y551200D02*
G54D10*
D03*
X80962Y525800D02*
G54D10*
D03*
G36*
X91462Y510900D02*
X91462Y489900D01*
X70462Y489900D01*
X70462Y510900D01*
X91462Y510900D01*
G37*
X614362Y317837D02*
G54D10*
D03*
X614362Y343237D02*
G54D10*
D03*
X614362Y368637D02*
G54D10*
D03*
X614362Y394037D02*
G54D10*
D03*
X614362Y419437D02*
G54D10*
D03*
X614362Y444837D02*
G54D10*
D03*
X614362Y470237D02*
G54D10*
D03*
X614362Y495637D02*
G54D10*
D03*
X614362Y521037D02*
G54D10*
D03*
X614362Y546437D02*
G54D10*
D03*
X614362Y571837D02*
G54D10*
D03*
X614362Y597237D02*
G54D10*
D03*
X614362Y622637D02*
G54D10*
D03*
X614362Y648037D02*
G54D10*
D03*
X614362Y673437D02*
G54D10*
D03*
X766762Y317837D02*
G54D11*
D03*
X766762Y317837D02*
G54D10*
D03*
X766762Y343237D02*
G54D10*
D03*
X766762Y368637D02*
G54D10*
D03*
X766762Y394037D02*
G54D10*
D03*
X766762Y419437D02*
G54D10*
D03*
X766762Y444837D02*
G54D10*
D03*
X766762Y470237D02*
G54D10*
D03*
X766762Y495637D02*
G54D10*
D03*
X766762Y521037D02*
G54D10*
D03*
X766762Y546437D02*
G54D10*
D03*
X766762Y571837D02*
G54D10*
D03*
X766762Y597237D02*
G54D10*
D03*
X766762Y622637D02*
G54D10*
D03*
X766762Y648037D02*
G54D10*
D03*
X766762Y673437D02*
G54D10*
D03*
X860424Y688975D02*
G54D12*
D03*
X885824Y688975D02*
G54D12*
D03*
X911224Y688975D02*
G54D12*
D03*
X936624Y688975D02*
G54D12*
D03*
X496887Y539750D02*
G54D10*
D03*
X496887Y565150D02*
G54D10*
D03*
X496887Y590550D02*
G54D10*
D03*
X496887Y615950D02*
G54D10*
D03*
X496887Y641351D02*
G54D10*
D03*
X412261Y91458D02*
G54D13*
D03*
X412261Y131458D02*
G54D13*
D03*
X332654Y221507D02*
G54D14*
D03*
X332654Y246907D02*
G54D14*
D03*
X332654Y272307D02*
G54D14*
D03*
X267443Y180908D02*
G54D15*
D03*
X191243Y180908D02*
G54D15*
D03*
X332942Y88499D02*
G54D14*
D03*
X332942Y113899D02*
G54D14*
D03*
X332942Y139299D02*
G54D14*
D03*
X474663Y176212D02*
G54D16*
D03*
X474662Y150812D02*
G54D16*
D03*
X860424Y273050D02*
G54D12*
D03*
X885824Y273050D02*
G54D12*
D03*
X911224Y273050D02*
G54D12*
D03*
X936624Y273050D02*
G54D12*
D03*
X831850Y209550D02*
G54D17*
D03*
X831850Y184150D02*
G54D17*
D03*
X831850Y158750D02*
G54D17*
D03*
X831850Y133350D02*
G54D17*
D03*
X534237Y131583D02*
G54D13*
D03*
X534237Y91583D02*
G54D13*
D03*
X158342Y113899D02*
G54D15*
D03*
X561975Y673100D02*
G54D15*
D03*
X809625Y342900D02*
G54D15*
D03*
X169862Y735013D02*
G54D15*
D03*
X104775Y222250D02*
G54D14*
D03*
X104775Y247650D02*
G54D14*
D03*
X104775Y273050D02*
G54D14*
D03*
X541338Y496888D02*
G54D15*
D03*
X33568Y424960D02*
G54D14*
D03*
X33568Y399560D02*
G54D14*
D03*
X33568Y374160D02*
G54D14*
D03*
X33568Y348760D02*
G54D14*
D03*
X33568Y323360D02*
G54D14*
D03*
X541568Y424960D02*
G54D14*
D03*
X541568Y399560D02*
G54D14*
D03*
X541568Y374160D02*
G54D14*
D03*
X541568Y348760D02*
G54D14*
D03*
X541568Y323360D02*
G54D14*
D03*
X809288Y597237D02*
G54D15*
D03*
X104775Y136525D02*
G54D14*
D03*
X104775Y161925D02*
G54D14*
D03*
X520700Y241300D02*
G54D18*
D03*
X533400Y254000D02*
G54D18*
D03*
G36*
X538100Y249300D02*
X554100Y249300D01*
X554100Y233300D01*
X538100Y233300D01*
X538100Y249300D01*
G37*
X810987Y770638D02*
G54D15*
D03*
X715738Y770638D02*
G54D15*
D03*
X292505Y425652D02*
G54D19*
D03*
X292505Y454227D02*
G54D19*
D03*
X32847Y496397D02*
G54D15*
D03*
G54D20*
X623134Y791942D02*
X623134Y812386D01*
X612912Y812386D01*
X608823Y811109D01*
X606779Y808553D01*
X606779Y805997D01*
X608823Y803442D01*
X612912Y802164D01*
X623134Y802164D01*
G54D20*
X592978Y802164D02*
X586845Y799609D01*
X584801Y797053D01*
X584801Y791942D01*
G54D20*
X601156Y791942D02*
X601156Y812386D01*
X590934Y812386D01*
X586845Y811109D01*
X584801Y808553D01*
X584801Y805997D01*
X586845Y803442D01*
X590934Y802164D01*
X601156Y802164D01*
G54D20*
X564867Y791942D02*
X579178Y791942D01*
X579178Y812386D01*
X564867Y812386D01*
G54D20*
X579178Y802164D02*
X564867Y802164D01*
G54D20*
X559245Y791942D02*
X559245Y812386D01*
X549023Y812386D01*
X544934Y811109D01*
X542890Y808553D01*
X542890Y795775D01*
X544934Y793220D01*
X549023Y791942D01*
X559245Y791942D01*
G54D20*
X537267Y791942D02*
X527045Y812386D01*
X516823Y791942D01*
G54D20*
X533178Y799609D02*
X520912Y799609D01*
G54D20*
X503023Y791942D02*
X503023Y812386D01*
G54D20*
X511201Y812386D02*
X494846Y812386D01*
G54D20*
X472868Y808553D02*
X472868Y795775D01*
X474912Y793220D01*
X479001Y791942D01*
X483090Y791942D01*
X487179Y793220D01*
X489223Y795775D01*
X489223Y808553D01*
X487179Y811109D01*
X483090Y812386D01*
X479001Y812386D01*
X474912Y811109D01*
X472868Y808553D01*
G54D20*
X459067Y802164D02*
X452934Y799609D01*
X450890Y797053D01*
X450890Y791942D01*
G54D20*
X467245Y791942D02*
X467245Y812386D01*
X457023Y812386D01*
X452934Y811109D01*
X450890Y808553D01*
X450890Y805997D01*
X452934Y803442D01*
X457023Y802164D01*
X467245Y802164D01*
G54D20*
X433205Y791942D02*
X433205Y812386D01*
X422983Y799609D01*
X412761Y812386D01*
X412761Y791942D01*
G54D20*
X390784Y795775D02*
X392828Y793220D01*
X396917Y791942D01*
X401006Y791942D01*
X405095Y793220D01*
X407139Y795775D01*
X407139Y808553D01*
X405095Y811109D01*
X401006Y812386D01*
X396917Y812386D01*
X392828Y811109D01*
X390784Y808553D01*
G54D20*
X385161Y812386D02*
X385161Y795775D01*
X383117Y793220D01*
X379028Y791942D01*
X374939Y791942D01*
X370850Y793220D01*
X368806Y795775D01*
X368806Y812386D01*
G54D20*
X351121Y791942D02*
X334766Y791942D01*
G54D20*
X342943Y791942D02*
X342943Y812386D01*
G54D20*
X351121Y812386D02*
X334766Y812386D01*
G54D20*
X329143Y791942D02*
X329143Y812386D01*
X312788Y791942D01*
X312788Y812386D01*
G54D20*
X298987Y791942D02*
X298987Y812386D01*
G54D20*
X307165Y812386D02*
X290810Y812386D01*
G54D20*
X270876Y791942D02*
X285187Y791942D01*
X285187Y812386D01*
X270876Y812386D01*
G54D20*
X285187Y802164D02*
X270876Y802164D01*
G54D20*
X257076Y802164D02*
X250943Y799609D01*
X248899Y797053D01*
X248899Y791942D01*
G54D20*
X265254Y791942D02*
X265254Y812386D01*
X255032Y812386D01*
X250943Y811109D01*
X248899Y808553D01*
X248899Y805997D01*
X250943Y803442D01*
X255032Y802164D01*
X265254Y802164D01*
G54D20*
X243276Y791942D02*
X243276Y812386D01*
X228965Y812386D01*
G54D20*
X243276Y802164D02*
X228965Y802164D01*
G54D20*
X223343Y791942D02*
X213121Y812386D01*
X202899Y791942D01*
G54D20*
X219254Y799609D02*
X206988Y799609D01*
G54D20*
X180922Y795775D02*
X182966Y793220D01*
X187055Y791942D01*
X191144Y791942D01*
X195233Y793220D01*
X197277Y795775D01*
X197277Y808553D01*
X195233Y811109D01*
X191144Y812386D01*
X187055Y812386D01*
X182966Y811109D01*
X180922Y808553D01*
G54D20*
X160988Y791942D02*
X175299Y791942D01*
X175299Y812386D01*
X160988Y812386D01*
G54D20*
X175299Y802164D02*
X160988Y802164D01*
X862013Y58738D02*
G54D15*
D03*
X157163Y42863D02*
G54D15*
D03*
X350838Y179388D02*
G54D15*
D03*
X26988Y677863D02*
G54D15*
D03*
X938213Y493713D02*
G54D15*
D03*
X414338Y642938D02*
G54D15*
D03*
X298250Y755650D02*
G54D21*
D03*
X222250Y755650D02*
G54D21*
D03*
X68734Y60358D02*
G54D22*
D03*
X933922Y61946D02*
G54D23*
D03*
X933450Y771524D02*
G54D23*
D03*
X68262Y773112D02*
G54D22*
D03*
X738238Y738138D02*
G54D24*
D03*
X738238Y803138D02*
G54D24*
D03*
X693238Y803138D02*
G54D24*
D03*
X693238Y738138D02*
G54D24*
D03*
X833488Y738138D02*
G54D24*
D03*
X833488Y803138D02*
G54D24*
D03*
X788488Y803138D02*
G54D24*
D03*
X788488Y738138D02*
G54D24*
D03*
X298250Y723900D02*
G54D21*
D03*
X222250Y723900D02*
G54D21*
D03*
X593525Y723900D02*
G54D21*
D03*
X517525Y723900D02*
G54D21*
D03*
X378371Y205084D02*
G54D21*
D03*
X378371Y281084D02*
G54D21*
D03*
X427000Y180386D02*
G54D21*
D03*
X427000Y256386D02*
G54D21*
D03*
X496888Y282575D02*
G54D21*
D03*
X420888Y282575D02*
G54D21*
D03*
M02*
