%FSLAX34Y34*%
%MOMM*%
%LNCOPPER_TOP*%
G71*
G01*
%ADD10C, 3.100*%
%ADD11C, 3.700*%
%ADD12C, 2.500*%
%ADD13C, 2.600*%
%ADD14C, 3.500*%
%ADD15C, 3.400*%
%ADD16C, 2.200*%
%ADD17C, 3.300*%
%ADD18C, 2.000*%
%ADD19C, 1.700*%
%ADD20C, 2.800*%
%ADD21C, 1.500*%
%ADD22C, 3.300*%
%ADD23C, 1.656*%
%ADD24C, 1.167*%
%ADD25C, 3.200*%
%ADD26C, 3.000*%
%ADD27C, 3.300*%
%ADD28C, 2.000*%
%ADD29C, 3.400*%
%ADD30C, 2.300*%
%ADD31C, 8.000*%
%ADD32C, 8.000*%
%ADD33C, 2.800*%
%ADD34C, 0.667*%
%ADD35C, 0.840*%
%ADD36C, 0.820*%
%ADD37C, 1.700*%
%ADD38C, 1.700*%
%ADD39C, 1.500*%
%ADD40C, 1.800*%
%ADD41C, 1.900*%
%ADD42C, 2.000*%
%ADD43C, 1.400*%
%ADD44C, 1.900*%
%ADD45C, 1.000*%
%ADD46C, 0.700*%
%ADD47C, 0.500*%
%ADD48C, 0.256*%
%ADD49C, 0.167*%
%ADD50C, 1.200*%
%ADD51C, 1.500*%
%ADD52C, 6.000*%
%ADD53C, 6.000*%
%ADD54C, 2.000*%
%LPD*%
G36*
X0Y840000D02*
X1000000Y840000D01*
X1000000Y0D01*
X0Y0D01*
X0Y840000D01*
G37*
%LPC*%
X252412Y678200D02*
G54D10*
D03*
X252412Y652800D02*
G54D10*
D03*
X252412Y627400D02*
G54D10*
D03*
X252412Y602000D02*
G54D10*
D03*
X252412Y576600D02*
G54D10*
D03*
X252412Y551200D02*
G54D10*
D03*
X252412Y525800D02*
G54D10*
D03*
X252412Y500400D02*
G54D10*
D03*
X80962Y678200D02*
G54D11*
D03*
X80962Y678200D02*
G54D10*
D03*
X80962Y652800D02*
G54D10*
D03*
X80962Y627400D02*
G54D10*
D03*
X80962Y602000D02*
G54D10*
D03*
X80962Y576600D02*
G54D10*
D03*
X80962Y551200D02*
G54D10*
D03*
X80962Y525800D02*
G54D10*
D03*
G36*
X96462Y515900D02*
X96462Y484900D01*
X65462Y484900D01*
X65462Y515900D01*
X96462Y515900D01*
G37*
X614362Y317837D02*
G54D10*
D03*
X614362Y343237D02*
G54D10*
D03*
X614362Y368637D02*
G54D10*
D03*
X614362Y394037D02*
G54D10*
D03*
X614362Y419437D02*
G54D10*
D03*
X614362Y444837D02*
G54D10*
D03*
X614362Y470237D02*
G54D10*
D03*
X614362Y495637D02*
G54D10*
D03*
X614362Y521037D02*
G54D10*
D03*
X614362Y546437D02*
G54D10*
D03*
X614362Y571837D02*
G54D10*
D03*
X614362Y597237D02*
G54D10*
D03*
X614362Y622637D02*
G54D10*
D03*
X614362Y648037D02*
G54D10*
D03*
X614362Y673437D02*
G54D10*
D03*
X766762Y317837D02*
G54D11*
D03*
X766762Y317837D02*
G54D10*
D03*
X766762Y343237D02*
G54D10*
D03*
X766762Y368637D02*
G54D10*
D03*
X766762Y394037D02*
G54D10*
D03*
X766762Y419437D02*
G54D10*
D03*
X766762Y444837D02*
G54D10*
D03*
X766762Y470237D02*
G54D10*
D03*
X766762Y495637D02*
G54D10*
D03*
X766762Y521037D02*
G54D10*
D03*
X766762Y546437D02*
G54D10*
D03*
X766762Y571837D02*
G54D10*
D03*
X766762Y597237D02*
G54D10*
D03*
X766762Y622637D02*
G54D10*
D03*
X766762Y648037D02*
G54D10*
D03*
X766762Y673437D02*
G54D10*
D03*
X860424Y688975D02*
G54D12*
D03*
X885824Y688975D02*
G54D12*
D03*
X911224Y688975D02*
G54D12*
D03*
X936624Y688975D02*
G54D12*
D03*
X496887Y539750D02*
G54D10*
D03*
X496887Y565150D02*
G54D10*
D03*
X496887Y590550D02*
G54D10*
D03*
X496887Y615950D02*
G54D10*
D03*
X496887Y641351D02*
G54D10*
D03*
X412261Y91458D02*
G54D13*
D03*
X412261Y131458D02*
G54D13*
D03*
X332654Y221507D02*
G54D14*
D03*
X332654Y246907D02*
G54D14*
D03*
X332654Y272307D02*
G54D14*
D03*
X267443Y180908D02*
G54D15*
D03*
X191243Y180908D02*
G54D15*
D03*
X332942Y88499D02*
G54D14*
D03*
X332942Y113899D02*
G54D14*
D03*
X332942Y139299D02*
G54D14*
D03*
X474663Y176212D02*
G54D16*
D03*
X474662Y150812D02*
G54D16*
D03*
X860424Y273050D02*
G54D12*
D03*
X885824Y273050D02*
G54D12*
D03*
X911224Y273050D02*
G54D12*
D03*
X936624Y273050D02*
G54D12*
D03*
X831850Y209550D02*
G54D17*
D03*
X831850Y184150D02*
G54D17*
D03*
X831850Y158750D02*
G54D17*
D03*
X831850Y133350D02*
G54D17*
D03*
G54D18*
X831850Y133350D02*
X831850Y60325D01*
X815975Y44450D01*
X222250Y44450D01*
X190500Y76200D01*
X190500Y180165D01*
X191243Y180908D01*
X534237Y131583D02*
G54D13*
D03*
X534237Y91583D02*
G54D13*
D03*
G54D19*
X314258Y180908D02*
X333375Y158750D01*
X333375Y139730D01*
X332943Y139297D01*
X404422Y139297D01*
X412261Y131458D01*
X158342Y113899D02*
G54D20*
D03*
G54D19*
X860424Y273050D02*
X568325Y273050D01*
G54D19*
X614362Y597237D02*
X566400Y597237D01*
X522288Y641350D01*
X496887Y641351D01*
X561975Y673100D02*
G54D20*
D03*
X809625Y342900D02*
G54D20*
D03*
X169862Y735013D02*
G54D20*
D03*
G54D19*
X332943Y88498D02*
X333778Y72622D01*
X368300Y73025D01*
X568325Y73025D01*
X568325Y595312D01*
X566400Y597237D01*
G54D21*
X534237Y91583D02*
X534237Y73862D01*
X533400Y73025D01*
G54D19*
X614362Y343237D02*
X628987Y343237D01*
X644525Y355600D01*
X644525Y682625D01*
X628650Y698500D01*
X352425Y698500D01*
X330200Y673100D01*
X330200Y539750D01*
X292505Y501245D01*
X252412Y500400D01*
G54D21*
X80962Y500400D02*
X173375Y500400D01*
X222250Y549275D01*
X222250Y723900D01*
X104775Y222250D02*
G54D22*
D03*
X104775Y247650D02*
G54D22*
D03*
X104775Y273050D02*
G54D22*
D03*
X541338Y496888D02*
G54D20*
D03*
G54D19*
X540847Y424960D02*
X540847Y496397D01*
G54D23*
X154809Y791942D02*
X154809Y812386D01*
X165031Y812386D01*
X169120Y811109D01*
X171165Y808553D01*
X171165Y805997D01*
X169120Y803442D01*
X165031Y802164D01*
X154809Y802164D01*
G54D23*
X184965Y802164D02*
X191098Y799609D01*
X193143Y797053D01*
X193143Y791942D01*
G54D23*
X176787Y791942D02*
X176787Y812386D01*
X187009Y812386D01*
X191098Y811109D01*
X193143Y808553D01*
X193143Y805997D01*
X191098Y803442D01*
X187009Y802164D01*
X176787Y802164D01*
G54D23*
X213076Y791942D02*
X198765Y791942D01*
X198765Y812386D01*
X213076Y812386D01*
G54D23*
X198765Y802164D02*
X213076Y802164D01*
G54D23*
X218698Y791942D02*
X218698Y812386D01*
X228920Y812386D01*
X233009Y811109D01*
X235054Y808553D01*
X235054Y795775D01*
X233009Y793220D01*
X228920Y791942D01*
X218698Y791942D01*
G54D23*
X240676Y791942D02*
X250898Y812386D01*
X261121Y791942D01*
G54D23*
X244765Y799609D02*
X257032Y799609D01*
G54D23*
X274920Y791942D02*
X274920Y812386D01*
G54D23*
X266742Y812386D02*
X283098Y812386D01*
G54D23*
X305076Y808553D02*
X305076Y795775D01*
X303031Y793220D01*
X298942Y791942D01*
X294853Y791942D01*
X290765Y793220D01*
X288720Y795775D01*
X288720Y808553D01*
X290765Y811109D01*
X294853Y812386D01*
X298942Y812386D01*
X303031Y811109D01*
X305076Y808553D01*
G54D23*
X318876Y802164D02*
X325009Y799609D01*
X327054Y797053D01*
X327054Y791942D01*
G54D23*
X310698Y791942D02*
X310698Y812386D01*
X320920Y812386D01*
X325009Y811109D01*
X327054Y808553D01*
X327054Y805997D01*
X325009Y803442D01*
X320920Y802164D01*
X310698Y802164D01*
G54D23*
X344738Y791942D02*
X344738Y812386D01*
X354960Y799609D01*
X365183Y812386D01*
X365183Y791942D01*
G54D23*
X387160Y795775D02*
X385115Y793220D01*
X381026Y791942D01*
X376937Y791942D01*
X372849Y793220D01*
X370804Y795775D01*
X370804Y808553D01*
X372849Y811109D01*
X376937Y812386D01*
X381026Y812386D01*
X385115Y811109D01*
X387160Y808553D01*
G54D23*
X392782Y812386D02*
X392782Y795775D01*
X394827Y793220D01*
X398915Y791942D01*
X403004Y791942D01*
X407093Y793220D01*
X409138Y795775D01*
X409138Y812386D01*
G54D23*
X426822Y791942D02*
X443178Y791942D01*
G54D23*
X435000Y791942D02*
X435000Y812386D01*
G54D23*
X426822Y812386D02*
X443178Y812386D01*
G54D23*
X448800Y791942D02*
X448800Y812386D01*
X465156Y791942D01*
X465156Y812386D01*
G54D23*
X478956Y791942D02*
X478956Y812386D01*
G54D23*
X470778Y812386D02*
X487134Y812386D01*
G54D23*
X507067Y791942D02*
X492756Y791942D01*
X492756Y812386D01*
X507067Y812386D01*
G54D23*
X492756Y802164D02*
X507067Y802164D01*
G54D23*
X520867Y802164D02*
X527000Y799609D01*
X529045Y797053D01*
X529045Y791942D01*
G54D23*
X512689Y791942D02*
X512689Y812386D01*
X522911Y812386D01*
X527000Y811109D01*
X529045Y808553D01*
X529045Y805997D01*
X527000Y803442D01*
X522911Y802164D01*
X512689Y802164D01*
G54D23*
X534667Y791942D02*
X534667Y812386D01*
X548978Y812386D01*
G54D23*
X534667Y802164D02*
X548978Y802164D01*
G54D23*
X554600Y791942D02*
X564822Y812386D01*
X575045Y791942D01*
G54D23*
X558689Y799609D02*
X570956Y799609D01*
G54D23*
X597022Y795775D02*
X594977Y793220D01*
X590888Y791942D01*
X586800Y791942D01*
X582711Y793220D01*
X580666Y795775D01*
X580666Y808553D01*
X582711Y811109D01*
X586800Y812386D01*
X590888Y812386D01*
X594977Y811109D01*
X597022Y808553D01*
G54D23*
X616955Y791942D02*
X602644Y791942D01*
X602644Y812386D01*
X616955Y812386D01*
G54D23*
X602644Y802164D02*
X616955Y802164D01*
G54D24*
X629765Y186302D02*
X629098Y184635D01*
X627765Y183802D01*
X626431Y183802D01*
X625098Y184635D01*
X624431Y186302D01*
X624431Y194635D01*
X625098Y196302D01*
X626431Y197135D01*
X627765Y197135D01*
X629098Y196302D01*
X629765Y194635D01*
G54D24*
X633431Y183802D02*
X633431Y191302D01*
G54D24*
X633431Y189635D02*
X634765Y191302D01*
X636098Y191302D01*
G54D24*
X643765Y184635D02*
X642699Y183802D01*
X641365Y183802D01*
X640032Y184635D01*
X639765Y186302D01*
X639765Y189135D01*
X640432Y190802D01*
X641765Y191302D01*
X643099Y190802D01*
X643765Y189635D01*
X643765Y187968D01*
X639765Y187968D01*
G54D24*
X647432Y190468D02*
X648766Y191302D01*
X650366Y191302D01*
X651432Y189635D01*
X651432Y183802D01*
G54D24*
X651432Y186302D02*
X650766Y187968D01*
X649432Y188302D01*
X648099Y187968D01*
X647432Y186302D01*
X647699Y184635D01*
X648766Y183802D01*
X649432Y183802D01*
X649699Y183802D01*
X650766Y184635D01*
X651432Y186302D01*
G54D24*
X656433Y197135D02*
X656433Y184635D01*
X657099Y183802D01*
X657766Y184135D01*
G54D24*
X655099Y191302D02*
X657766Y191302D01*
G54D24*
X665433Y184635D02*
X664367Y183802D01*
X663033Y183802D01*
X661700Y184635D01*
X661433Y186302D01*
X661433Y189135D01*
X662100Y190802D01*
X663433Y191302D01*
X664767Y190802D01*
X665433Y189635D01*
X665433Y187968D01*
X661433Y187968D01*
G54D24*
X673100Y183802D02*
X673100Y197135D01*
G54D24*
X673100Y189135D02*
X672434Y190802D01*
X671100Y191302D01*
X669767Y190802D01*
X669100Y189135D01*
X669100Y185802D01*
X669767Y184135D01*
X671100Y183802D01*
X672434Y184135D01*
X673100Y185802D01*
G54D24*
X680567Y183802D02*
X680567Y197135D01*
G54D24*
X680567Y189135D02*
X681234Y190802D01*
X682567Y191302D01*
X683901Y190802D01*
X684567Y189135D01*
X684567Y185802D01*
X683901Y184135D01*
X682567Y183802D01*
X681234Y184135D01*
X680567Y185802D01*
G54D24*
X688234Y191302D02*
X690901Y183802D01*
X693568Y191302D01*
G54D24*
X690901Y183802D02*
X690234Y181302D01*
X689568Y180468D01*
X688901Y180468D01*
G54D24*
X701034Y183802D02*
X701034Y197135D01*
G54D24*
X701034Y187968D02*
X706368Y197135D01*
G54D24*
X703034Y190468D02*
X706368Y183802D01*
G54D24*
X710034Y190468D02*
X711368Y191302D01*
X712968Y191302D01*
X714034Y189635D01*
X714034Y183802D01*
G54D24*
X714034Y186302D02*
X713368Y187968D01*
X712034Y188302D01*
X710701Y187968D01*
X710034Y186302D01*
X710301Y184635D01*
X711368Y183802D01*
X712034Y183802D01*
X712301Y183802D01*
X713368Y184635D01*
X714034Y186302D01*
G54D24*
X717701Y183802D02*
X717701Y191302D01*
G54D24*
X717701Y189635D02*
X719035Y191302D01*
X720368Y191302D01*
G54D24*
X724035Y183802D02*
X724035Y197135D01*
G54D24*
X727702Y183802D02*
X727702Y197135D01*
G54D24*
X733036Y183802D02*
X733036Y197135D01*
G54D24*
X727702Y190468D02*
X733036Y190468D01*
G54D24*
X736702Y190468D02*
X738036Y191302D01*
X739636Y191302D01*
X740702Y189635D01*
X740702Y183802D01*
G54D24*
X740702Y186302D02*
X740036Y187968D01*
X738702Y188302D01*
X737369Y187968D01*
X736702Y186302D01*
X736969Y184635D01*
X738036Y183802D01*
X738702Y183802D01*
X738969Y183802D01*
X740036Y184635D01*
X740702Y186302D01*
G54D24*
X744369Y183802D02*
X744369Y191302D01*
G54D24*
X744369Y189635D02*
X745036Y190802D01*
X746369Y191302D01*
X747703Y190802D01*
X748369Y189635D01*
X748369Y183802D01*
G54D24*
X752036Y191302D02*
X756036Y191302D01*
X752036Y183802D01*
X756036Y183802D01*
G54D24*
X664101Y167117D02*
X664101Y158784D01*
X663434Y157117D01*
X662101Y156284D01*
X660767Y156284D01*
X659434Y157117D01*
X658767Y158784D01*
X658767Y167117D01*
X659434Y168784D01*
X660767Y169617D01*
X662101Y169617D01*
X663434Y168784D01*
X664101Y167117D01*
G54D24*
X671767Y156284D02*
X671767Y169617D01*
X667767Y161284D01*
X667767Y159617D01*
X673101Y159617D01*
G54D24*
X677301Y156284D02*
X676767Y156284D01*
X676767Y156951D01*
X677301Y156951D01*
X677301Y156284D01*
X676767Y156284D01*
G54D24*
X686301Y156284D02*
X680967Y156284D01*
X680967Y157117D01*
X681634Y158784D01*
X685634Y163784D01*
X686301Y165451D01*
X686301Y167117D01*
X685634Y168784D01*
X684301Y169617D01*
X682967Y169617D01*
X681634Y168784D01*
X680967Y167117D01*
G54D24*
X695301Y167117D02*
X695301Y158784D01*
X694634Y157117D01*
X693301Y156284D01*
X691967Y156284D01*
X690634Y157117D01*
X689967Y158784D01*
X689967Y167117D01*
X690634Y168784D01*
X691967Y169617D01*
X693301Y169617D01*
X694634Y168784D01*
X695301Y167117D01*
G54D24*
X704301Y156284D02*
X698967Y156284D01*
X698967Y157117D01*
X699634Y158784D01*
X703634Y163784D01*
X704301Y165451D01*
X704301Y167117D01*
X703634Y168784D01*
X702301Y169617D01*
X700967Y169617D01*
X699634Y168784D01*
X698967Y167117D01*
G54D24*
X713301Y167117D02*
X713301Y158784D01*
X712634Y157117D01*
X711301Y156284D01*
X709967Y156284D01*
X708634Y157117D01*
X707967Y158784D01*
X707967Y167117D01*
X708634Y168784D01*
X709967Y169617D01*
X711301Y169617D01*
X712634Y168784D01*
X713301Y167117D01*
G54D24*
X665182Y136001D02*
X667182Y134334D01*
X667848Y132667D01*
X667848Y129334D01*
G54D24*
X662515Y129334D02*
X662515Y142667D01*
X665848Y142667D01*
X667182Y141834D01*
X667848Y140167D01*
X667848Y138501D01*
X667182Y136834D01*
X665848Y136001D01*
X662515Y136001D01*
G54D24*
X675515Y130167D02*
X674448Y129334D01*
X673115Y129334D01*
X671782Y130167D01*
X671515Y131834D01*
X671515Y134667D01*
X672182Y136334D01*
X673515Y136834D01*
X674848Y136334D01*
X675515Y135167D01*
X675515Y133501D01*
X671515Y133501D01*
G54D24*
X679182Y136834D02*
X681849Y129334D01*
X684515Y136834D01*
G54D24*
X688715Y129334D02*
X688182Y129334D01*
X688182Y130001D01*
X688715Y130001D01*
X688715Y129334D01*
X688182Y129334D01*
G54D24*
X692382Y137667D02*
X695715Y142667D01*
X695715Y129334D01*
G54D24*
X699915Y129334D02*
X699382Y129334D01*
X699382Y130001D01*
X699915Y130001D01*
X699915Y129334D01*
X699382Y129334D01*
G54D24*
X708915Y140167D02*
X708915Y131834D01*
X708249Y130167D01*
X706915Y129334D01*
X705582Y129334D01*
X704249Y130167D01*
X703582Y131834D01*
X703582Y140167D01*
X704249Y141834D01*
X705582Y142667D01*
X706915Y142667D01*
X708249Y141834D01*
X708915Y140167D01*
X33568Y424960D02*
G54D10*
D03*
X33568Y399560D02*
G54D10*
D03*
X33568Y374160D02*
G54D10*
D03*
X33568Y348760D02*
G54D10*
D03*
X33568Y323360D02*
G54D10*
D03*
X541568Y424960D02*
G54D10*
D03*
X541568Y399560D02*
G54D10*
D03*
X541568Y374160D02*
G54D10*
D03*
X541568Y348760D02*
G54D10*
D03*
X541568Y323360D02*
G54D10*
D03*
X809288Y597237D02*
G54D20*
D03*
G54D25*
X33568Y424960D02*
X541568Y424960D01*
G54D26*
X33568Y399560D02*
X541568Y399560D01*
G54D27*
X33568Y374160D02*
X541568Y374160D01*
G54D27*
X33568Y348760D02*
X541568Y348760D01*
G54D26*
X33568Y323360D02*
X541568Y323360D01*
X104775Y136525D02*
G54D22*
D03*
X104775Y161925D02*
G54D22*
D03*
G54D19*
X315068Y180908D02*
X333375Y200025D01*
X332654Y221507D01*
X520700Y241300D02*
G54D28*
D03*
X533400Y254000D02*
G54D28*
D03*
G36*
X536100Y251300D02*
X556100Y251300D01*
X556100Y231300D01*
X536100Y231300D01*
X536100Y251300D01*
G37*
G54D18*
X267443Y180908D02*
X315068Y180908D01*
X810987Y770638D02*
G54D20*
D03*
X715738Y770638D02*
G54D20*
D03*
X292505Y425652D02*
G54D29*
D03*
X292505Y454227D02*
G54D29*
D03*
G54D19*
X292505Y454227D02*
X292505Y501245D01*
G54D21*
X32847Y424960D02*
X32847Y496397D01*
X32847Y496397D02*
G54D20*
D03*
X862013Y58738D02*
G54D20*
D03*
X157163Y42863D02*
G54D20*
D03*
X350838Y179388D02*
G54D20*
D03*
X26988Y677863D02*
G54D20*
D03*
X938213Y493713D02*
G54D20*
D03*
X414338Y642938D02*
G54D20*
D03*
X298250Y755650D02*
G54D30*
D03*
X222250Y755650D02*
G54D30*
D03*
G54D21*
X766762Y495637D02*
X766424Y495300D01*
X695325Y495300D01*
X669925Y520700D01*
X669925Y692150D01*
X620712Y742950D01*
X341312Y742950D01*
X322262Y723900D01*
X298250Y723900D01*
X68734Y60358D02*
G54D31*
D03*
X933922Y61946D02*
G54D32*
D03*
X933450Y771524D02*
G54D32*
D03*
X68262Y773112D02*
G54D31*
D03*
X738238Y738138D02*
G54D33*
D03*
X738238Y803138D02*
G54D33*
D03*
X693238Y803138D02*
G54D33*
D03*
X693238Y738138D02*
G54D33*
D03*
X833488Y738138D02*
G54D33*
D03*
X833488Y803138D02*
G54D33*
D03*
X788488Y803138D02*
G54D33*
D03*
X788488Y738138D02*
G54D33*
D03*
X298250Y723900D02*
G54D30*
D03*
X222250Y723900D02*
G54D30*
D03*
X593525Y723900D02*
G54D30*
D03*
X517525Y723900D02*
G54D30*
D03*
X378371Y205084D02*
G54D30*
D03*
X378371Y281084D02*
G54D30*
D03*
X427000Y180386D02*
G54D30*
D03*
X427000Y256386D02*
G54D30*
D03*
X496888Y282575D02*
G54D30*
D03*
X420888Y282575D02*
G54D30*
D03*
%LPD*%
G54D34*
G36*
X161675Y113899D02*
X161675Y99399D01*
X155008Y99399D01*
X155008Y113899D01*
X161675Y113899D01*
G37*
G36*
X158342Y110566D02*
X143842Y110566D01*
X143842Y117232D01*
X158342Y117232D01*
X158342Y110566D01*
G37*
G36*
X155008Y113899D02*
X155008Y128399D01*
X161675Y128399D01*
X161675Y113899D01*
X155008Y113899D01*
G37*
G36*
X158342Y117232D02*
X172842Y117232D01*
X172842Y110566D01*
X158342Y110566D01*
X158342Y117232D01*
G37*
G54D34*
G36*
X565308Y673100D02*
X565308Y658600D01*
X558642Y658600D01*
X558642Y673100D01*
X565308Y673100D01*
G37*
G36*
X561975Y669767D02*
X547475Y669767D01*
X547475Y676433D01*
X561975Y676433D01*
X561975Y669767D01*
G37*
G36*
X558642Y673100D02*
X558642Y687600D01*
X565308Y687600D01*
X565308Y673100D01*
X558642Y673100D01*
G37*
G36*
X561975Y676433D02*
X576475Y676433D01*
X576475Y669767D01*
X561975Y669767D01*
X561975Y676433D01*
G37*
G54D34*
G36*
X812958Y342900D02*
X812958Y328400D01*
X806292Y328400D01*
X806292Y342900D01*
X812958Y342900D01*
G37*
G36*
X809625Y339567D02*
X795125Y339567D01*
X795125Y346233D01*
X809625Y346233D01*
X809625Y339567D01*
G37*
G36*
X806292Y342900D02*
X806292Y357400D01*
X812958Y357400D01*
X812958Y342900D01*
X806292Y342900D01*
G37*
G36*
X809625Y346233D02*
X824125Y346233D01*
X824125Y339567D01*
X809625Y339567D01*
X809625Y346233D01*
G37*
G54D34*
G36*
X173195Y735013D02*
X173195Y720513D01*
X166529Y720513D01*
X166529Y735013D01*
X173195Y735013D01*
G37*
G36*
X169862Y731680D02*
X155362Y731680D01*
X155362Y738346D01*
X169862Y738346D01*
X169862Y731680D01*
G37*
G36*
X166529Y735013D02*
X166529Y749513D01*
X173195Y749513D01*
X173195Y735013D01*
X166529Y735013D01*
G37*
G36*
X169862Y738346D02*
X184362Y738346D01*
X184362Y731680D01*
X169862Y731680D01*
X169862Y738346D01*
G37*
G54D34*
G36*
X544671Y496888D02*
X544671Y482388D01*
X538005Y482388D01*
X538005Y496888D01*
X544671Y496888D01*
G37*
G36*
X541338Y493555D02*
X526838Y493555D01*
X526838Y500221D01*
X541338Y500221D01*
X541338Y493555D01*
G37*
G36*
X538005Y496888D02*
X538005Y511388D01*
X544671Y511388D01*
X544671Y496888D01*
X538005Y496888D01*
G37*
G36*
X541338Y500221D02*
X555838Y500221D01*
X555838Y493555D01*
X541338Y493555D01*
X541338Y500221D01*
G37*
G54D34*
G36*
X812621Y597237D02*
X812621Y582737D01*
X805955Y582737D01*
X805955Y597237D01*
X812621Y597237D01*
G37*
G36*
X809288Y593904D02*
X794788Y593904D01*
X794788Y600570D01*
X809288Y600570D01*
X809288Y593904D01*
G37*
G36*
X805955Y597237D02*
X805955Y611737D01*
X812621Y611737D01*
X812621Y597237D01*
X805955Y597237D01*
G37*
G36*
X809288Y600570D02*
X823788Y600570D01*
X823788Y593904D01*
X809288Y593904D01*
X809288Y600570D01*
G37*
G54D35*
G36*
X813957Y767668D02*
X803704Y757415D01*
X797764Y763355D01*
X808017Y773608D01*
X813957Y767668D01*
G37*
G36*
X808017Y767668D02*
X797764Y777921D01*
X803704Y783861D01*
X813957Y773608D01*
X808017Y767668D01*
G37*
G36*
X808017Y773608D02*
X818270Y783861D01*
X824210Y777921D01*
X813957Y767668D01*
X808017Y773608D01*
G37*
G36*
X813957Y773608D02*
X824210Y763355D01*
X818270Y757415D01*
X808017Y767668D01*
X813957Y773608D01*
G37*
G54D36*
G36*
X718637Y767739D02*
X708384Y757486D01*
X702586Y763284D01*
X712839Y773537D01*
X718637Y767739D01*
G37*
G36*
X712839Y767739D02*
X702586Y777992D01*
X708384Y783790D01*
X718637Y773537D01*
X712839Y767739D01*
G37*
G36*
X712839Y773537D02*
X723092Y783790D01*
X728890Y777992D01*
X718637Y767739D01*
X712839Y773537D01*
G37*
G36*
X718637Y773537D02*
X728890Y763284D01*
X723092Y757486D01*
X712839Y767739D01*
X718637Y773537D01*
G37*
G54D34*
G36*
X36180Y496397D02*
X36180Y481897D01*
X29514Y481897D01*
X29514Y496397D01*
X36180Y496397D01*
G37*
G36*
X32847Y493064D02*
X18347Y493064D01*
X18347Y499730D01*
X32847Y499730D01*
X32847Y493064D01*
G37*
G36*
X29514Y496397D02*
X29514Y510897D01*
X36180Y510897D01*
X36180Y496397D01*
X29514Y496397D01*
G37*
G36*
X32847Y499730D02*
X47347Y499730D01*
X47347Y493064D01*
X32847Y493064D01*
X32847Y499730D01*
G37*
G54D34*
G36*
X865346Y58738D02*
X865346Y44238D01*
X858680Y44238D01*
X858680Y58738D01*
X865346Y58738D01*
G37*
G36*
X862013Y55405D02*
X847513Y55405D01*
X847513Y62071D01*
X862013Y62071D01*
X862013Y55405D01*
G37*
G36*
X858680Y58738D02*
X858680Y73238D01*
X865346Y73238D01*
X865346Y58738D01*
X858680Y58738D01*
G37*
G36*
X862013Y62071D02*
X876513Y62071D01*
X876513Y55405D01*
X862013Y55405D01*
X862013Y62071D01*
G37*
G54D34*
G36*
X160496Y42863D02*
X160496Y28363D01*
X153830Y28363D01*
X153830Y42863D01*
X160496Y42863D01*
G37*
G36*
X157163Y39530D02*
X142663Y39530D01*
X142663Y46196D01*
X157163Y46196D01*
X157163Y39530D01*
G37*
G36*
X153830Y42863D02*
X153830Y57363D01*
X160496Y57363D01*
X160496Y42863D01*
X153830Y42863D01*
G37*
G36*
X157163Y46196D02*
X171663Y46196D01*
X171663Y39530D01*
X157163Y39530D01*
X157163Y46196D01*
G37*
G54D34*
G36*
X354171Y179388D02*
X354171Y164888D01*
X347505Y164888D01*
X347505Y179388D01*
X354171Y179388D01*
G37*
G36*
X350838Y176055D02*
X336338Y176055D01*
X336338Y182721D01*
X350838Y182721D01*
X350838Y176055D01*
G37*
G36*
X347505Y179388D02*
X347505Y193888D01*
X354171Y193888D01*
X354171Y179388D01*
X347505Y179388D01*
G37*
G36*
X350838Y182721D02*
X365338Y182721D01*
X365338Y176055D01*
X350838Y176055D01*
X350838Y182721D01*
G37*
G54D34*
G36*
X30321Y677863D02*
X30321Y663363D01*
X23655Y663363D01*
X23655Y677863D01*
X30321Y677863D01*
G37*
G36*
X26988Y674530D02*
X12488Y674530D01*
X12488Y681196D01*
X26988Y681196D01*
X26988Y674530D01*
G37*
G36*
X23655Y677863D02*
X23655Y692363D01*
X30321Y692363D01*
X30321Y677863D01*
X23655Y677863D01*
G37*
G36*
X26988Y681196D02*
X41488Y681196D01*
X41488Y674530D01*
X26988Y674530D01*
X26988Y681196D01*
G37*
G54D34*
G36*
X941546Y493713D02*
X941546Y479213D01*
X934880Y479213D01*
X934880Y493713D01*
X941546Y493713D01*
G37*
G36*
X938213Y490380D02*
X923713Y490380D01*
X923713Y497046D01*
X938213Y497046D01*
X938213Y490380D01*
G37*
G36*
X934880Y493713D02*
X934880Y508213D01*
X941546Y508213D01*
X941546Y493713D01*
X934880Y493713D01*
G37*
G36*
X938213Y497046D02*
X952713Y497046D01*
X952713Y490380D01*
X938213Y490380D01*
X938213Y497046D01*
G37*
G54D34*
G36*
X417671Y642938D02*
X417671Y628438D01*
X411005Y628438D01*
X411005Y642938D01*
X417671Y642938D01*
G37*
G36*
X414338Y639605D02*
X399838Y639605D01*
X399838Y646271D01*
X414338Y646271D01*
X414338Y639605D01*
G37*
G36*
X411005Y642938D02*
X411005Y657438D01*
X417671Y657438D01*
X417671Y642938D01*
X411005Y642938D01*
G37*
G36*
X414338Y646271D02*
X428838Y646271D01*
X428838Y639605D01*
X414338Y639605D01*
X414338Y646271D01*
G37*
G54D18*
G36*
X61662Y67430D02*
X90300Y96067D01*
X104442Y81925D01*
X75805Y53287D01*
X61662Y67430D01*
G37*
G36*
X75805Y67430D02*
X104442Y38792D01*
X90300Y24650D01*
X61662Y53287D01*
X75805Y67430D01*
G37*
G36*
X75805Y53287D02*
X47167Y24650D01*
X33025Y38792D01*
X61662Y67430D01*
X75805Y53287D01*
G37*
G36*
X61662Y53287D02*
X33025Y81925D01*
X47167Y96067D01*
X75805Y67430D01*
X61662Y53287D01*
G37*
G54D18*
G36*
X926850Y69018D02*
X955488Y97655D01*
X969630Y83513D01*
X940993Y54875D01*
X926850Y69018D01*
G37*
G36*
X940993Y69018D02*
X969630Y40380D01*
X955488Y26238D01*
X926850Y54875D01*
X940993Y69018D01*
G37*
G36*
X940993Y54875D02*
X912355Y26238D01*
X898213Y40380D01*
X926850Y69018D01*
X940993Y54875D01*
G37*
G36*
X926850Y54875D02*
X898213Y83513D01*
X912355Y97655D01*
X940993Y69018D01*
X926850Y54875D01*
G37*
G54D18*
G36*
X926378Y778596D02*
X955016Y807233D01*
X969158Y793091D01*
X940521Y764453D01*
X926378Y778596D01*
G37*
G36*
X940521Y778596D02*
X969158Y749958D01*
X955016Y735816D01*
X926378Y764453D01*
X940521Y778596D01*
G37*
G36*
X940521Y764453D02*
X911883Y735816D01*
X897741Y749958D01*
X926378Y778596D01*
X940521Y764453D01*
G37*
G36*
X926378Y764453D02*
X897741Y793091D01*
X911883Y807233D01*
X940521Y778596D01*
X926378Y764453D01*
G37*
G54D18*
G36*
X61191Y780184D02*
X89829Y808821D01*
X103971Y794679D01*
X75334Y766041D01*
X61191Y780184D01*
G37*
G36*
X75334Y780184D02*
X103971Y751546D01*
X89829Y737404D01*
X61191Y766041D01*
X75334Y780184D01*
G37*
G36*
X75334Y766041D02*
X46696Y737404D01*
X32554Y751546D01*
X61191Y780184D01*
X75334Y766041D01*
G37*
G36*
X61191Y766041D02*
X32554Y794679D01*
X46696Y808821D01*
X75334Y780184D01*
X61191Y766041D01*
G37*
X252412Y678200D02*
G54D37*
D03*
X252412Y652800D02*
G54D37*
D03*
X252412Y627400D02*
G54D37*
D03*
X252412Y602000D02*
G54D37*
D03*
X252412Y576600D02*
G54D37*
D03*
X252412Y551200D02*
G54D37*
D03*
X252412Y525800D02*
G54D37*
D03*
X252412Y500400D02*
G54D37*
D03*
X80962Y678200D02*
G54D38*
D03*
X80962Y678200D02*
G54D37*
D03*
X80962Y652800D02*
G54D37*
D03*
X80962Y627400D02*
G54D37*
D03*
X80962Y602000D02*
G54D37*
D03*
X80962Y576600D02*
G54D37*
D03*
X80962Y551200D02*
G54D37*
D03*
X80962Y525800D02*
G54D37*
D03*
G36*
X89462Y508900D02*
X89462Y491900D01*
X72462Y491900D01*
X72462Y508900D01*
X89462Y508900D01*
G37*
X614362Y317837D02*
G54D37*
D03*
X614362Y343237D02*
G54D37*
D03*
X614362Y368637D02*
G54D37*
D03*
X614362Y394037D02*
G54D37*
D03*
X614362Y419437D02*
G54D37*
D03*
X614362Y444837D02*
G54D37*
D03*
X614362Y470237D02*
G54D37*
D03*
X614362Y495637D02*
G54D37*
D03*
X614362Y521037D02*
G54D37*
D03*
X614362Y546437D02*
G54D37*
D03*
X614362Y571837D02*
G54D37*
D03*
X614362Y597237D02*
G54D37*
D03*
X614362Y622637D02*
G54D37*
D03*
X614362Y648037D02*
G54D37*
D03*
X614362Y673437D02*
G54D37*
D03*
X766762Y317837D02*
G54D38*
D03*
X766762Y317837D02*
G54D37*
D03*
X766762Y343237D02*
G54D37*
D03*
X766762Y368637D02*
G54D37*
D03*
X766762Y394037D02*
G54D37*
D03*
X766762Y419437D02*
G54D37*
D03*
X766762Y444837D02*
G54D37*
D03*
X766762Y470237D02*
G54D37*
D03*
X766762Y495637D02*
G54D37*
D03*
X766762Y521037D02*
G54D37*
D03*
X766762Y546437D02*
G54D37*
D03*
X766762Y571837D02*
G54D37*
D03*
X766762Y597237D02*
G54D37*
D03*
X766762Y622637D02*
G54D37*
D03*
X766762Y648037D02*
G54D37*
D03*
X766762Y673437D02*
G54D37*
D03*
X860424Y688975D02*
G54D39*
D03*
X885824Y688975D02*
G54D39*
D03*
X911224Y688975D02*
G54D39*
D03*
X936624Y688975D02*
G54D39*
D03*
X496887Y539750D02*
G54D37*
D03*
X496887Y565150D02*
G54D37*
D03*
X496887Y590550D02*
G54D37*
D03*
X496887Y615950D02*
G54D37*
D03*
X496887Y641351D02*
G54D37*
D03*
X412261Y91458D02*
G54D40*
D03*
X412261Y131458D02*
G54D40*
D03*
X332654Y221507D02*
G54D41*
D03*
X332654Y246907D02*
G54D41*
D03*
X332654Y272307D02*
G54D41*
D03*
X267443Y180908D02*
G54D42*
D03*
X191243Y180908D02*
G54D42*
D03*
X332942Y88499D02*
G54D41*
D03*
X332942Y113899D02*
G54D41*
D03*
X332942Y139299D02*
G54D41*
D03*
X474663Y176212D02*
G54D43*
D03*
X474662Y150812D02*
G54D43*
D03*
X860424Y273050D02*
G54D39*
D03*
X885824Y273050D02*
G54D39*
D03*
X911224Y273050D02*
G54D39*
D03*
X936624Y273050D02*
G54D39*
D03*
X831850Y209550D02*
G54D44*
D03*
X831850Y184150D02*
G54D44*
D03*
X831850Y158750D02*
G54D44*
D03*
X831850Y133350D02*
G54D44*
D03*
G54D45*
X831850Y133350D02*
X831850Y60325D01*
X815975Y44450D01*
X222250Y44450D01*
X190500Y76200D01*
X190500Y180165D01*
X191243Y180908D01*
X534237Y131583D02*
G54D40*
D03*
X534237Y91583D02*
G54D40*
D03*
G54D46*
X314258Y180908D02*
X333375Y158750D01*
X333375Y139730D01*
X332943Y139297D01*
X404422Y139297D01*
X412261Y131458D01*
X158342Y113899D02*
G54D42*
D03*
G54D46*
X860424Y273050D02*
X568325Y273050D01*
G54D46*
X614362Y597237D02*
X566400Y597237D01*
X522288Y641350D01*
X496887Y641351D01*
X561975Y673100D02*
G54D42*
D03*
X809625Y342900D02*
G54D42*
D03*
X169862Y735013D02*
G54D42*
D03*
G54D46*
X332943Y88498D02*
X333778Y72622D01*
X368300Y73025D01*
X568325Y73025D01*
X568325Y595312D01*
X566400Y597237D01*
G54D46*
X534237Y91583D02*
X534237Y73862D01*
X533400Y73025D01*
G54D46*
X614362Y343237D02*
X628987Y343237D01*
X644525Y355600D01*
X644525Y682625D01*
X628650Y698500D01*
X352425Y698500D01*
X330200Y673100D01*
X330200Y539750D01*
X292505Y501245D01*
X252412Y500400D01*
G54D47*
X80962Y500400D02*
X173375Y500400D01*
X222250Y549275D01*
X222250Y723900D01*
X104775Y222250D02*
G54D41*
D03*
X104775Y247650D02*
G54D41*
D03*
X104775Y273050D02*
G54D41*
D03*
X541338Y496888D02*
G54D42*
D03*
G54D46*
X540847Y424960D02*
X540847Y496397D01*
G54D48*
X154809Y791942D02*
X154809Y812386D01*
X165031Y812386D01*
X169120Y811109D01*
X171165Y808553D01*
X171165Y805997D01*
X169120Y803442D01*
X165031Y802164D01*
X154809Y802164D01*
G54D48*
X184965Y802164D02*
X191098Y799609D01*
X193143Y797053D01*
X193143Y791942D01*
G54D48*
X176787Y791942D02*
X176787Y812386D01*
X187009Y812386D01*
X191098Y811109D01*
X193143Y808553D01*
X193143Y805997D01*
X191098Y803442D01*
X187009Y802164D01*
X176787Y802164D01*
G54D48*
X213076Y791942D02*
X198765Y791942D01*
X198765Y812386D01*
X213076Y812386D01*
G54D48*
X198765Y802164D02*
X213076Y802164D01*
G54D48*
X218698Y791942D02*
X218698Y812386D01*
X228920Y812386D01*
X233009Y811109D01*
X235054Y808553D01*
X235054Y795775D01*
X233009Y793220D01*
X228920Y791942D01*
X218698Y791942D01*
G54D48*
X240676Y791942D02*
X250898Y812386D01*
X261121Y791942D01*
G54D48*
X244765Y799609D02*
X257032Y799609D01*
G54D48*
X274920Y791942D02*
X274920Y812386D01*
G54D48*
X266742Y812386D02*
X283098Y812386D01*
G54D48*
X305076Y808553D02*
X305076Y795775D01*
X303031Y793220D01*
X298942Y791942D01*
X294853Y791942D01*
X290765Y793220D01*
X288720Y795775D01*
X288720Y808553D01*
X290765Y811109D01*
X294853Y812386D01*
X298942Y812386D01*
X303031Y811109D01*
X305076Y808553D01*
G54D48*
X318876Y802164D02*
X325009Y799609D01*
X327054Y797053D01*
X327054Y791942D01*
G54D48*
X310698Y791942D02*
X310698Y812386D01*
X320920Y812386D01*
X325009Y811109D01*
X327054Y808553D01*
X327054Y805997D01*
X325009Y803442D01*
X320920Y802164D01*
X310698Y802164D01*
G54D48*
X344738Y791942D02*
X344738Y812386D01*
X354960Y799609D01*
X365183Y812386D01*
X365183Y791942D01*
G54D48*
X387160Y795775D02*
X385115Y793220D01*
X381026Y791942D01*
X376937Y791942D01*
X372849Y793220D01*
X370804Y795775D01*
X370804Y808553D01*
X372849Y811109D01*
X376937Y812386D01*
X381026Y812386D01*
X385115Y811109D01*
X387160Y808553D01*
G54D48*
X392782Y812386D02*
X392782Y795775D01*
X394827Y793220D01*
X398915Y791942D01*
X403004Y791942D01*
X407093Y793220D01*
X409138Y795775D01*
X409138Y812386D01*
G54D48*
X426822Y791942D02*
X443178Y791942D01*
G54D48*
X435000Y791942D02*
X435000Y812386D01*
G54D48*
X426822Y812386D02*
X443178Y812386D01*
G54D48*
X448800Y791942D02*
X448800Y812386D01*
X465156Y791942D01*
X465156Y812386D01*
G54D48*
X478956Y791942D02*
X478956Y812386D01*
G54D48*
X470778Y812386D02*
X487134Y812386D01*
G54D48*
X507067Y791942D02*
X492756Y791942D01*
X492756Y812386D01*
X507067Y812386D01*
G54D48*
X492756Y802164D02*
X507067Y802164D01*
G54D48*
X520867Y802164D02*
X527000Y799609D01*
X529045Y797053D01*
X529045Y791942D01*
G54D48*
X512689Y791942D02*
X512689Y812386D01*
X522911Y812386D01*
X527000Y811109D01*
X529045Y808553D01*
X529045Y805997D01*
X527000Y803442D01*
X522911Y802164D01*
X512689Y802164D01*
G54D48*
X534667Y791942D02*
X534667Y812386D01*
X548978Y812386D01*
G54D48*
X534667Y802164D02*
X548978Y802164D01*
G54D48*
X554600Y791942D02*
X564822Y812386D01*
X575045Y791942D01*
G54D48*
X558689Y799609D02*
X570956Y799609D01*
G54D48*
X597022Y795775D02*
X594977Y793220D01*
X590888Y791942D01*
X586800Y791942D01*
X582711Y793220D01*
X580666Y795775D01*
X580666Y808553D01*
X582711Y811109D01*
X586800Y812386D01*
X590888Y812386D01*
X594977Y811109D01*
X597022Y808553D01*
G54D48*
X616955Y791942D02*
X602644Y791942D01*
X602644Y812386D01*
X616955Y812386D01*
G54D48*
X602644Y802164D02*
X616955Y802164D01*
G54D49*
X629765Y186302D02*
X629098Y184635D01*
X627765Y183802D01*
X626431Y183802D01*
X625098Y184635D01*
X624431Y186302D01*
X624431Y194635D01*
X625098Y196302D01*
X626431Y197135D01*
X627765Y197135D01*
X629098Y196302D01*
X629765Y194635D01*
G54D49*
X633431Y183802D02*
X633431Y191302D01*
G54D49*
X633431Y189635D02*
X634765Y191302D01*
X636098Y191302D01*
G54D49*
X643765Y184635D02*
X642699Y183802D01*
X641365Y183802D01*
X640032Y184635D01*
X639765Y186302D01*
X639765Y189135D01*
X640432Y190802D01*
X641765Y191302D01*
X643099Y190802D01*
X643765Y189635D01*
X643765Y187968D01*
X639765Y187968D01*
G54D49*
X647432Y190468D02*
X648766Y191302D01*
X650366Y191302D01*
X651432Y189635D01*
X651432Y183802D01*
G54D49*
X651432Y186302D02*
X650766Y187968D01*
X649432Y188302D01*
X648099Y187968D01*
X647432Y186302D01*
X647699Y184635D01*
X648766Y183802D01*
X649432Y183802D01*
X649699Y183802D01*
X650766Y184635D01*
X651432Y186302D01*
G54D49*
X656433Y197135D02*
X656433Y184635D01*
X657099Y183802D01*
X657766Y184135D01*
G54D49*
X655099Y191302D02*
X657766Y191302D01*
G54D49*
X665433Y184635D02*
X664367Y183802D01*
X663033Y183802D01*
X661700Y184635D01*
X661433Y186302D01*
X661433Y189135D01*
X662100Y190802D01*
X663433Y191302D01*
X664767Y190802D01*
X665433Y189635D01*
X665433Y187968D01*
X661433Y187968D01*
G54D49*
X673100Y183802D02*
X673100Y197135D01*
G54D49*
X673100Y189135D02*
X672434Y190802D01*
X671100Y191302D01*
X669767Y190802D01*
X669100Y189135D01*
X669100Y185802D01*
X669767Y184135D01*
X671100Y183802D01*
X672434Y184135D01*
X673100Y185802D01*
G54D49*
X680567Y183802D02*
X680567Y197135D01*
G54D49*
X680567Y189135D02*
X681234Y190802D01*
X682567Y191302D01*
X683901Y190802D01*
X684567Y189135D01*
X684567Y185802D01*
X683901Y184135D01*
X682567Y183802D01*
X681234Y184135D01*
X680567Y185802D01*
G54D49*
X688234Y191302D02*
X690901Y183802D01*
X693568Y191302D01*
G54D49*
X690901Y183802D02*
X690234Y181302D01*
X689568Y180468D01*
X688901Y180468D01*
G54D49*
X701034Y183802D02*
X701034Y197135D01*
G54D49*
X701034Y187968D02*
X706368Y197135D01*
G54D49*
X703034Y190468D02*
X706368Y183802D01*
G54D49*
X710034Y190468D02*
X711368Y191302D01*
X712968Y191302D01*
X714034Y189635D01*
X714034Y183802D01*
G54D49*
X714034Y186302D02*
X713368Y187968D01*
X712034Y188302D01*
X710701Y187968D01*
X710034Y186302D01*
X710301Y184635D01*
X711368Y183802D01*
X712034Y183802D01*
X712301Y183802D01*
X713368Y184635D01*
X714034Y186302D01*
G54D49*
X717701Y183802D02*
X717701Y191302D01*
G54D49*
X717701Y189635D02*
X719035Y191302D01*
X720368Y191302D01*
G54D49*
X724035Y183802D02*
X724035Y197135D01*
G54D49*
X727702Y183802D02*
X727702Y197135D01*
G54D49*
X733036Y183802D02*
X733036Y197135D01*
G54D49*
X727702Y190468D02*
X733036Y190468D01*
G54D49*
X736702Y190468D02*
X738036Y191302D01*
X739636Y191302D01*
X740702Y189635D01*
X740702Y183802D01*
G54D49*
X740702Y186302D02*
X740036Y187968D01*
X738702Y188302D01*
X737369Y187968D01*
X736702Y186302D01*
X736969Y184635D01*
X738036Y183802D01*
X738702Y183802D01*
X738969Y183802D01*
X740036Y184635D01*
X740702Y186302D01*
G54D49*
X744369Y183802D02*
X744369Y191302D01*
G54D49*
X744369Y189635D02*
X745036Y190802D01*
X746369Y191302D01*
X747703Y190802D01*
X748369Y189635D01*
X748369Y183802D01*
G54D49*
X752036Y191302D02*
X756036Y191302D01*
X752036Y183802D01*
X756036Y183802D01*
G54D49*
X664101Y167117D02*
X664101Y158784D01*
X663434Y157117D01*
X662101Y156284D01*
X660767Y156284D01*
X659434Y157117D01*
X658767Y158784D01*
X658767Y167117D01*
X659434Y168784D01*
X660767Y169617D01*
X662101Y169617D01*
X663434Y168784D01*
X664101Y167117D01*
G54D49*
X671767Y156284D02*
X671767Y169617D01*
X667767Y161284D01*
X667767Y159617D01*
X673101Y159617D01*
G54D49*
X677301Y156284D02*
X676767Y156284D01*
X676767Y156951D01*
X677301Y156951D01*
X677301Y156284D01*
X676767Y156284D01*
G54D49*
X686301Y156284D02*
X680967Y156284D01*
X680967Y157117D01*
X681634Y158784D01*
X685634Y163784D01*
X686301Y165451D01*
X686301Y167117D01*
X685634Y168784D01*
X684301Y169617D01*
X682967Y169617D01*
X681634Y168784D01*
X680967Y167117D01*
G54D49*
X695301Y167117D02*
X695301Y158784D01*
X694634Y157117D01*
X693301Y156284D01*
X691967Y156284D01*
X690634Y157117D01*
X689967Y158784D01*
X689967Y167117D01*
X690634Y168784D01*
X691967Y169617D01*
X693301Y169617D01*
X694634Y168784D01*
X695301Y167117D01*
G54D49*
X704301Y156284D02*
X698967Y156284D01*
X698967Y157117D01*
X699634Y158784D01*
X703634Y163784D01*
X704301Y165451D01*
X704301Y167117D01*
X703634Y168784D01*
X702301Y169617D01*
X700967Y169617D01*
X699634Y168784D01*
X698967Y167117D01*
G54D49*
X713301Y167117D02*
X713301Y158784D01*
X712634Y157117D01*
X711301Y156284D01*
X709967Y156284D01*
X708634Y157117D01*
X707967Y158784D01*
X707967Y167117D01*
X708634Y168784D01*
X709967Y169617D01*
X711301Y169617D01*
X712634Y168784D01*
X713301Y167117D01*
G54D49*
X665182Y136001D02*
X667182Y134334D01*
X667848Y132667D01*
X667848Y129334D01*
G54D49*
X662515Y129334D02*
X662515Y142667D01*
X665848Y142667D01*
X667182Y141834D01*
X667848Y140167D01*
X667848Y138501D01*
X667182Y136834D01*
X665848Y136001D01*
X662515Y136001D01*
G54D49*
X675515Y130167D02*
X674448Y129334D01*
X673115Y129334D01*
X671782Y130167D01*
X671515Y131834D01*
X671515Y134667D01*
X672182Y136334D01*
X673515Y136834D01*
X674848Y136334D01*
X675515Y135167D01*
X675515Y133501D01*
X671515Y133501D01*
G54D49*
X679182Y136834D02*
X681849Y129334D01*
X684515Y136834D01*
G54D49*
X688715Y129334D02*
X688182Y129334D01*
X688182Y130001D01*
X688715Y130001D01*
X688715Y129334D01*
X688182Y129334D01*
G54D49*
X692382Y137667D02*
X695715Y142667D01*
X695715Y129334D01*
G54D49*
X699915Y129334D02*
X699382Y129334D01*
X699382Y130001D01*
X699915Y130001D01*
X699915Y129334D01*
X699382Y129334D01*
G54D49*
X708915Y140167D02*
X708915Y131834D01*
X708249Y130167D01*
X706915Y129334D01*
X705582Y129334D01*
X704249Y130167D01*
X703582Y131834D01*
X703582Y140167D01*
X704249Y141834D01*
X705582Y142667D01*
X706915Y142667D01*
X708249Y141834D01*
X708915Y140167D01*
X33568Y424960D02*
G54D41*
D03*
X33568Y399560D02*
G54D41*
D03*
X33568Y374160D02*
G54D41*
D03*
X33568Y348760D02*
G54D41*
D03*
X33568Y323360D02*
G54D41*
D03*
X541568Y424960D02*
G54D41*
D03*
X541568Y399560D02*
G54D41*
D03*
X541568Y374160D02*
G54D41*
D03*
X541568Y348760D02*
G54D41*
D03*
X541568Y323360D02*
G54D41*
D03*
X809288Y597237D02*
G54D42*
D03*
G54D45*
X33568Y424960D02*
X541568Y424960D01*
G54D45*
X33568Y399560D02*
X541568Y399560D01*
G54D47*
X33568Y374160D02*
X541568Y374160D01*
G54D47*
X33568Y348760D02*
X541568Y348760D01*
G54D45*
X33568Y323360D02*
X541568Y323360D01*
X104775Y136525D02*
G54D41*
D03*
X104775Y161925D02*
G54D41*
D03*
G54D46*
X315068Y180908D02*
X333375Y200025D01*
X332654Y221507D01*
X520700Y241300D02*
G54D50*
D03*
X533400Y254000D02*
G54D50*
D03*
G36*
X540100Y247300D02*
X552100Y247300D01*
X552100Y235300D01*
X540100Y235300D01*
X540100Y247300D01*
G37*
G54D45*
X267443Y180908D02*
X315068Y180908D01*
X810987Y770638D02*
G54D42*
D03*
X715738Y770638D02*
G54D42*
D03*
X292505Y425652D02*
G54D28*
D03*
X292505Y454227D02*
G54D28*
D03*
G54D46*
X292505Y454227D02*
X292505Y501245D01*
G54D46*
X32847Y424960D02*
X32847Y496397D01*
X32847Y496397D02*
G54D42*
D03*
X862013Y58738D02*
G54D42*
D03*
X157163Y42863D02*
G54D42*
D03*
X350838Y179388D02*
G54D42*
D03*
X26988Y677863D02*
G54D42*
D03*
X938213Y493713D02*
G54D42*
D03*
X414338Y642938D02*
G54D42*
D03*
X298250Y755650D02*
G54D51*
D03*
X222250Y755650D02*
G54D51*
D03*
G54D47*
X766762Y495637D02*
X766424Y495300D01*
X695325Y495300D01*
X669925Y520700D01*
X669925Y692150D01*
X620712Y742950D01*
X341312Y742950D01*
X322262Y723900D01*
X298250Y723900D01*
X68734Y60358D02*
G54D52*
D03*
X933922Y61946D02*
G54D53*
D03*
X933450Y771524D02*
G54D53*
D03*
X68262Y773112D02*
G54D52*
D03*
X738238Y738138D02*
G54D54*
D03*
X738238Y803138D02*
G54D54*
D03*
X693238Y803138D02*
G54D54*
D03*
X693238Y738138D02*
G54D54*
D03*
X833488Y738138D02*
G54D54*
D03*
X833488Y803138D02*
G54D54*
D03*
X788488Y803138D02*
G54D54*
D03*
X788488Y738138D02*
G54D54*
D03*
X298250Y723900D02*
G54D51*
D03*
X222250Y723900D02*
G54D51*
D03*
X593525Y723900D02*
G54D51*
D03*
X517525Y723900D02*
G54D51*
D03*
X378371Y205084D02*
G54D51*
D03*
X378371Y281084D02*
G54D51*
D03*
X427000Y180386D02*
G54D51*
D03*
X427000Y256386D02*
G54D51*
D03*
X496888Y282575D02*
G54D51*
D03*
X420888Y282575D02*
G54D51*
D03*
M02*
